<?xml version="1.0" standalone="no"?>
<!DOCTYPE svg PUBLIC "-//W3C//DTD SVG 1.1//EN" "http://www.w3.org/Graphics/SVG/1.1/DTD/svg11.dtd" >
<svg xmlns="http://www.w3.org/2000/svg">
<metadata>Generated by IcoMoon</metadata>
<defs>
<font id="aplaw" horiz-adv-x="1024">
<font-face units-per-em="1024" ascent="960" descent="-64" />
<missing-glyph horiz-adv-x="1024" />
<glyph unicode="&#x20;" horiz-adv-x="512" d="" />
<glyph unicode="&#xe031;" glyph-name="layers" d="M0 640l512 256 512-256-512-256zM512 117l416 208.333 96-48-512-256.333-512 256.333 96 48zM512 298.334l416 208 96-48-512-256-512 256 96 48zM833.333 640l-321.333 160.667-321.333-160.667 321.333-160.667z" />
<glyph unicode="&#xe068;" glyph-name="upload" d="M213.333 938.667h597.333q53 0 90.5-37.5t37.5-90.5v-597.333q0-53-37.5-90.5t-90.5-37.5h-170.667v85.333h170.667q17.667 0 30.167 12.5t12.5 30.167v597.333q0 17.667-12.5 30.167t-30.167 12.5h-597.333q-17.667 0-30.167-12.5t-12.5-30.167v-597.333q0-17.667 12.5-30.167t30.167-12.5h170.667v-85.333h-170.667q-53 0-90.5 37.5t-37.5 90.5v597.333q0 53 37.5 90.5t90.5 37.5zM512 640q18 0 30.333-12.333l170.667-170.667q12.333-12.333 12.333-30.333 0-17.667-12.5-30.167t-30.167-12.5q-17.333 0-30.333 12.333l-97.667 98v-537q0-17.667-12.5-30.167t-30.167-12.5-30.167 12.5-12.5 30.167v537l-97.667-98q-13-12.333-30.333-12.333-17.667 0-30.167 12.5t-12.5 30.167q0 17.333 12.333 30.333l170.667 170.667q12.333 12.333 30.333 12.333z" />
<glyph unicode="&#xe069;" glyph-name="download" d="M640 768h170.667q53 0 90.5-37.5t37.5-90.5v-597.333q0-53-37.5-90.5t-90.5-37.5h-597.333q-53 0-90.5 37.5t-37.5 90.5v597.333q0 53 37.5 90.5t90.5 37.5h170.667v-85.333h-170.667q-17.667 0-30.167-12.5t-12.5-30.167v-597.333q0-17.667 12.5-30.167t30.167-12.5h597.333q17.667 0 30.167 12.5t12.5 30.167v597.333q0 17.667-12.5 30.167t-30.167 12.5h-170.667v85.333zM512 938.667q17.667 0 30.167-12.5t12.5-30.167v-537l97.667 98q12.333 12.333 30.333 12.333 18.333 0 30.5-12.167t12.167-30.5q0-18-12.333-30.333l-170.667-170.667q-12.333-12.333-30.333-12.333t-30.333 12.333l-170.667 170.667q-12.333 13-12.333 30.333 0 17.667 12.5 30.167t30.167 12.5q18 0 30.333-12.333l97.667-98v537q0 17.667 12.5 30.167t30.167 12.5z" />
<glyph unicode="&#xe083;" glyph-name="marquee-plus" d="M512 640q17.667 0 30.167-12.5t12.5-30.167v-128h128q17.667 0 30.167-12.5t12.5-30.167-12.5-30.167-30.167-12.5h-128v-128q0-17.667-12.5-30.167t-30.167-12.5-30.167 12.5-12.5 30.167v128h-128q-17.667 0-30.167 12.5t-12.5 30.167 12.5 30.167 30.167 12.5h128v128q0 17.667 12.5 30.167t30.167 12.5zM85.333 213.334q17.667 0 30.167-12.5t12.5-30.167v-85.333q0-17.667 12.5-30.167t30.167-12.5h85.333q17.667 0 30.167-12.5t12.5-30.167-12.5-30.167-30.167-12.5h-85.333q-53 0-90.5 37.5t-37.5 90.5v85.333q0 17.667 12.5 30.167t30.167 12.5zM85.333 554.667q17.667 0 30.167-12.5t12.5-30.167v-170.667q0-17.667-12.5-30.167t-30.167-12.5-30.167 12.5-12.5 30.167v170.667q0 17.667 12.5 30.167t30.167 12.5zM426.667 42.667h170.667q17.667 0 30.167-12.5t12.5-30.167-12.5-30.167-30.167-12.5h-170.667q-17.667 0-30.167 12.5t-12.5 30.167 12.5 30.167 30.167 12.5zM170.667 896h85.333q17.667 0 30.167-12.5t12.5-30.167-12.5-30.167-30.167-12.5h-85.333q-17.667 0-30.167-12.5t-12.5-30.167v-85.333q0-17.667-12.5-30.167t-30.167-12.5-30.167 12.5-12.5 30.167v85.333q0 53 37.5 90.5t90.5 37.5zM938.667 213.334q17.667 0 30.167-12.5t12.5-30.167v-85.333q0-53-37.5-90.5t-90.5-37.5h-85.333q-17.667 0-30.167 12.5t-12.5 30.167 12.5 30.167 30.167 12.5h85.333q17.667 0 30.167 12.5t12.5 30.167v85.333q0 17.667 12.5 30.167t30.167 12.5zM938.667 554.667q17.667 0 30.167-12.5t12.5-30.167v-170.667q0-17.667-12.5-30.167t-30.167-12.5-30.167 12.5-12.5 30.167v170.667q0 17.667 12.5 30.167t30.167 12.5zM426.667 896h170.667q17.667 0 30.167-12.5t12.5-30.167-12.5-30.167-30.167-12.5h-170.667q-17.667 0-30.167 12.5t-12.5 30.167 12.5 30.167 30.167 12.5zM768 896h85.333q53 0 90.5-37.5t37.5-90.5v-85.333q0-17.667-12.5-30.167t-30.167-12.5-30.167 12.5-12.5 30.167v85.333q0 17.667-12.5 30.167t-30.167 12.5h-85.333q-17.667 0-30.167 12.5t-12.5 30.167 12.5 30.167 30.167 12.5z" />
<glyph unicode="&#xe084;" glyph-name="marquee-minus" d="M768 896h85.333q53 0 90.5-37.5t37.5-90.5v-85.333q0-17.667-12.5-30.167t-30.167-12.5-30.167 12.5-12.5 30.167v85.333q0 17.667-12.5 30.167t-30.167 12.5h-85.333q-17.667 0-30.167 12.5t-12.5 30.167 12.5 30.167 30.167 12.5zM85.333 213.334q17.667 0 30.167-12.5t12.5-30.167v-85.333q0-17.667 12.5-30.167t30.167-12.5h85.333q17.667 0 30.167-12.5t12.5-30.167-12.5-30.167-30.167-12.5h-85.333q-53 0-90.5 37.5t-37.5 90.5v85.333q0 17.667 12.5 30.167t30.167 12.5zM85.333 554.667q17.667 0 30.167-12.5t12.5-30.167v-170.667q0-17.667-12.5-30.167t-30.167-12.5-30.167 12.5-12.5 30.167v170.667q0 17.667 12.5 30.167t30.167 12.5zM426.667 42.667h170.667q17.667 0 30.167-12.5t12.5-30.167-12.5-30.167-30.167-12.5h-170.667q-17.667 0-30.167 12.5t-12.5 30.167 12.5 30.167 30.167 12.5zM170.667 896h85.333q17.667 0 30.167-12.5t12.5-30.167-12.5-30.167-30.167-12.5h-85.333q-17.667 0-30.167-12.5t-12.5-30.167v-85.333q0-17.667-12.5-30.167t-30.167-12.5-30.167 12.5-12.5 30.167v85.333q0 53 37.5 90.5t90.5 37.5zM938.667 213.334q17.667 0 30.167-12.5t12.5-30.167v-85.333q0-53-37.5-90.5t-90.5-37.5h-85.333q-17.667 0-30.167 12.5t-12.5 30.167 12.5 30.167 30.167 12.5h85.333q17.667 0 30.167 12.5t12.5 30.167v85.333q0 17.667 12.5 30.167t30.167 12.5zM341.333 469.334h341.333q17.667 0 30.167-12.5t12.5-30.167-12.5-30.167-30.167-12.5h-341.333q-17.667 0-30.167 12.5t-12.5 30.167 12.5 30.167 30.167 12.5zM938.667 554.667q17.667 0 30.167-12.5t12.5-30.167v-170.667q0-17.667-12.5-30.167t-30.167-12.5-30.167 12.5-12.5 30.167v170.667q0 17.667 12.5 30.167t30.167 12.5zM426.667 896h170.667q17.667 0 30.167-12.5t12.5-30.167-12.5-30.167-30.167-12.5h-170.667q-17.667 0-30.167 12.5t-12.5 30.167 12.5 30.167 30.167 12.5z" />
<glyph unicode="&#xe125;" glyph-name="file-add" d="M213.333 938.667h426.667l298.667-298.667v-597.333q0-53-37.5-90.5t-90.5-37.5h-597.333q-53 0-90.5 37.5t-37.5 90.5v768q0 53 37.5 90.5t90.5 37.5zM512 469.334q17.667 0 30.167-12.5t12.5-30.167v-85.333h85.333q17.667 0 30.167-12.5t12.5-30.167-12.5-30.167-30.167-12.5h-85.333v-85.333q0-17.667-12.5-30.167t-30.167-12.5-30.167 12.5-12.5 30.167v85.333h-85.333q-17.667 0-30.167 12.5t-12.5 30.167 12.5 30.167 30.167 12.5h85.333v85.333q0 17.667 12.5 30.167t30.167 12.5zM554.667 554.667v298.667h-341.333q-18 0-30.333-12.333t-12.333-30.333v-768q0-18 12.333-30.333t30.333-12.333h597.333q18 0 30.333 12.333t12.333 30.333v512h-298.667zM818 640l-178 178v-178h178z" />
<glyph unicode="&#xe128;" glyph-name="open" d="M170.667 896h298.667q17.667 0 30.167-12.5t12.5-30.167-12.5-30.167-30.167-12.5h-298.667q-17.667 0-30.167-12.5t-12.5-30.167v-682.667q0-17.667 12.5-30.167t30.167-12.5h682.667q17.667 0 30.167 12.5t12.5 30.167v298.667q0 17.667 12.5 30.167t30.167 12.5 30.167-12.5 12.5-30.167v-298.667q0-53-37.5-90.5t-90.5-37.5h-682.667q-53 0-90.5 37.5t-37.5 90.5v682.667q0 53 37.5 90.5t90.5 37.5zM682.667 896h256q17.667 0 30.167-12.5t12.5-30.167v-256q0-17.667-12.5-30.167t-30.167-12.5-30.167 12.5-12.5 30.167v153l-354-354q-12.333-12.333-30-12.333-18.333 0-30.5 12.167t-12.167 30.5q0 17.667 12.333 30l354 354h-153q-17.667 0-30.167 12.5t-12.5 30.167 12.5 30.167 30.167 12.5z" />
<glyph unicode="&#xe129;" glyph-name="ellipsis" d="M853.333 554.667q53 0 90.5-37.5t37.5-90.5-37.5-90.5-90.5-37.5-90.5 37.5-37.5 90.5 37.5 90.5 90.5 37.5zM170.667 554.667q53 0 90.5-37.5t37.5-90.5-37.5-90.5-90.5-37.5-90.5 37.5-37.5 90.5 37.5 90.5 90.5 37.5zM170.667 469.334q-17.667 0-30.167-12.5t-12.5-30.167 12.5-30.167 30.167-12.5 30.167 12.5 12.5 30.167-12.5 30.167-30.167 12.5zM512 554.667q53 0 90.5-37.5t37.5-90.5-37.5-90.5-90.5-37.5-90.5 37.5-37.5 90.5 37.5 90.5 90.5 37.5zM512 469.334q-17.667 0-30.167-12.5t-12.5-30.167 12.5-30.167 30.167-12.5 30.167 12.5 12.5 30.167-12.5 30.167-30.167 12.5zM853.333 469.334q-17.667 0-30.167-12.5t-12.5-30.167 12.5-30.167 30.167-12.5 30.167 12.5 12.5 30.167-12.5 30.167-30.167 12.5z" />
<glyph unicode="&#xe900;" glyph-name="admin-man-two" d="M383.193 854.179c0-58.443-47.378-105.821-105.821-105.821s-105.821 47.378-105.821 105.821c0 58.443 47.378 105.821 105.821 105.821s105.821-47.378 105.821-105.821zM329.291 736.849l-25.16-10.55c-5.083 8.856-14.482 14.866-25.48 14.866-10.966 0-20.301-5.882-25.576-14.642l-25.065 10.742c-3.709 1.503-6.65 1.247-9.975-0.991s-4.092-5.914-4.092-9.879v-31.299c0-3.836 0.48-7.353 3.517-9.559 3.101-2.206 5.467-2.909 9.111-1.886 9.879 3.069 22.059 6.778 29.125 8.92 5.435-6.554 13.651-10.774 22.954-10.774 8.792 0 16.912 3.932 22.347 10.166 7.065-2.174 19.662-5.882 29.7-8.92 3.581-1.023 7.545-0.384 10.71 1.918 2.973 2.238 5.019 5.755 5.019 9.495v31.459c0 4.028-2.302 7.705-5.691 9.943-3.261 2.174-7.833 2.558-11.445 0.991zM1002.101 835.349v34.080l-478.272-0.671v-33.377l34.56-0.288-0.863-186.641v-0.064c0-0.991-2.526-2.078-3.932-3.325l-83.953-74.714-104.766 129.031-87.566-114.069-88.653 122.541c-42.105-28.933-99.874-97.828-115.987-251.157-0.032 0-0.032-0.575-0.064-0.735-0.32-3.101-0.639-6.17-0.895-9.335-0.032-0.48-0.096-0.927-0.096-1.375-0.032-0.448-0.096-0.863-0.128-1.375l-49.586-19.789 51.472-128.711 22.539 8.984c-16.337 8.472-27.494 25.096-27.622 43.767 0 4.987 0 9.847 0.064 14.738 1.311-22.731 19.981-42.009 42.84-42.009h0.032c23.786 0 46.037 20.653 46.037 44.47-0.032 21.484-0.096 41.593 0.607 60.072 1.151 28.645 2.238 47.731 9.463 69.471 2.046 6.074 2.622 9.975 5.435 15.569l68.16 24.201 58.122-145.432-18.223-7.321-50.257 125.578-44.662-17.839c-10.774-38.364-11.094-85.264-10.87-141.339 0-4.54 8.824-18.734 11.062-22.859v-347.29c0-23.722 19.662-42.105 43.255-42.105 23.722 0 43.287 16.656 43.287 43.479h11.381c0-26.855 21.963-43.479 45.685-43.479 23.658 0 45.685 18.255 45.685 41.945l0.032 347.418c9.687 15.921 9.687 34.592 9.719 54.541v159.339l46.644-57.866c7.449-9.048 18.511-14.706 30.148-15.569 1.087-0.16 1.982-0.224 3.101-0.224 10.454 0 20.525 3.549 28.357 10.614l37.757 33.217 27.175 0.288-0.032-265.703h-34.080v-34.048h34.080v-261.259l409.216-0.064 0.032 261.259h34.080v34.080h-34.080l0.032 265.799 34.048 0.064 0.48 34.112-33.696 0.064-0.352 290.991h-0.256l34.304 0.32zM831.445 100.742h-136.992v69.695h136.992v-69.695zM694.485 381.47v67.361h136.992v-67.361h-136.992zM831.445 691.388h-136.992v69.599h136.992v-69.599z" />
<glyph unicode="&#xe901;" glyph-name="adminman" d="M384.288 461.344c8.836 0 16 7.164 16 16v115.18c0 10.808 12.406 31.476 31.856 31.476h25.454c7.976-7.942 25.212-25.22 38.546-38.608v-105.392c0-8.836 7.164-16 16-16s16 7.164 16 16v105.352c4.594 4.576 11.94 11.894 19.3 19.236 6.010 5.996 12.018 11.998 16.526 16.516 1.046 1.048 2.004 2.008 2.882 2.896h25.292c19.45 0 31.856-20.668 31.856-31.476v-115.248c0-8.836 7.164-16 16-16s16 7.164 16 16v115.248c0 13.928-6.488 29.516-17.356 41.694-12.536 14.046-29.048 21.782-46.5 21.782h-32c-4.756 0-9.026-2.076-11.958-5.368-2.432-2.528-20.294-20.36-35.998-36.006-3.806 3.82-8.214 8.24-12.626 12.66-5.994 6.006-11.994 12.014-16.512 16.522-10.542 10.52-11.174 11.15-16.356 11.986-0.844 0.136-1.696 0.204-2.55 0.204h-32c-17.452 0-33.964-7.736-46.5-21.782-10.868-12.178-17.356-27.766-17.356-41.694v-115.18c0-8.834 7.162-15.998 16-15.998zM512.144 656c52.934 0 96 43.066 96 96v15.854c0 0.012 0 0.024 0 0.036v80.11c0 8.836-7.164 16-16 16h-128c-26.468 0-48-21.532-48-48v-64c0-52.934 43.064-96 96-96zM512.144 688c-35.29 0-64 28.71-64 64v15.902l128-14.222v-1.68c0-35.29-28.71-64-64-64zM464.144 832h112v-46.124l-126.234 14.026c-0.594 0.066-1.182 0.092-1.766 0.092v16.006c0 8.822 7.178 16 16 16zM1008 432h-127.134l30.314 90.94c1.44 4.318 0.972 9.046-1.288 12.998l-63.012 110.27c-0.050 0.126-0.104 0.25-0.158 0.376-4.454 10.206-14.362 10.346-24.852 10.494-5.534 0.076-13.112 0.022-22.522-0.168-15.852-0.318-31.792-0.914-31.95-0.92-8.596-0.324-15.4-7.386-15.4-15.988v-18.026c-27.572-7.122-48-32.208-48-61.974 0-8.836 7.164-16 16-16h96c8.836 0 16 7.164 16 16 0 29.766-20.428 54.852-48 61.974v2.548c15.020 0.438 29.732 0.686 38.096 0.56l56.462-98.81-29.738-89.214c-0.56-1.678-0.812-3.382-0.812-5.060h-832.006c-8.836 0-16-7.164-16-16s7.164-16 16-16h16v-352c0-8.836 7.164-16 16-16h928c8.836 0 16 7.164 16 16v352h16c8.836 0 16 7.164 16 16s-7.164 16-16 16zM795.706 576h-55.41c5.54 9.558 15.884 16 27.706 16s22.164-6.442 27.704-16zM960 64h-896v336h896v-336zM384 336h256c8.836 0 16 7.164 16 16s-7.164 16-16 16h-256c-8.836 0-16-7.164-16-16s7.164-16 16-16zM560 304h-96c-8.836 0-16-7.164-16-16s7.164-16 16-16h96c8.836 0 16 7.164 16 16s-7.164 16-16 16zM128 448h144c8.836 0 16 7.164 16 16s-7.164 16-16 16h-144c-8.836 0-16-7.164-16-16s7.164-16 16-16zM128 496h144c8.836 0 16 7.164 16 16s-7.164 16-16 16h-144c-8.836 0-16-7.164-16-16s7.164-16 16-16zM160 544h112c8.836 0 16 7.164 16 16s-7.164 16-16 16h-112c-8.836 0-16-7.164-16-16s7.164-16 16-16z" />
<glyph unicode="&#xe902;" glyph-name="agenda" d="M379.245 363.763h280.289c30.167 0 54.717 24.553 54.717 54.756v382.861c0 30.205-24.512 54.717-54.717 54.717h-280.289c-30.167 0-54.717-24.512-54.717-54.717v-382.9c0-30.203 24.512-54.717 54.717-54.717zM346.376 801.379c0 18.090 14.74 32.83 32.872 32.83h280.289c18.090 0 32.83-14.74 32.83-32.83v-382.858c0-18.090-14.699-32.83-32.83-32.83h-280.292c-18.132 0-32.872 14.74-32.872 32.83v382.858zM803.536 150.912v0.323h-1.574c-0.767 0.082-1.453 0.444-2.261 0.444h-196.174v21.846h196.174c13.932 0 25.32 11.387 25.32 25.32-0.041 13.973-11.429 25.32-25.32 25.32h-501.866c-13.932 0-25.32-11.387-25.32-25.32 0-5.895 2.343-11.065 5.735-15.385-0.243-1.858-1.092-3.513-1.092-5.412v-26.491c-19.019 0.808-34.405 18.617-34.405 40.625v9.772c0 22.573 16.031 40.948 35.698 40.948h17.122c0.767-0.082 1.453-0.444 2.261-0.444h501.863c0.808 0 1.494 0.405 2.261 0.444h1.574v0.323c11.751 1.897 20.836 11.509 21.28 23.624h0.162v575.52c0 85.488-29.398 117.916-120.298 117.632h-416.172c-49.104 0-89.042-39.938-89.042-89.042v-661.331c0-0.121 0.041-0.201 0.041-0.323h0.121c-0.162-2.462-0.645-4.845-0.645-7.351v-9.772c0-49.669 34.97-90.090 78.179-90.9v-122.559c0-11.71 4.643-22.654 13.044-30.73 12.923-12.477 33.114-15.424 49.266-7.227l100.388 52.335 101.359-52.335c6.058-3.11 12.799-4.765 19.546-4.765 23.583 0 42.765 19.141 42.765 42.723v122.357h200.010v0.808c12.035 1.938 21.443 11.953 21.443 24.512-0.005 12.559-9.412 22.573-21.445 24.512zM243.239 870.958c0 24.956 20.312 45.309 45.309 45.309h427.117c53.99 0.687 65.62-28.711 66.265-73.858v-549.392h-503.479c-12.719 0-24.553-3.755-35.213-9.852v587.793zM459.847 32.029c-12.033 6.179-26.974 6.218-39.089-0.041l-99.823-53.264-1.050 194.801h239.868v-193.105l-99.905 51.61z" />
<glyph unicode="&#xe903;" glyph-name="agreement" d="M691.425 735.444c-2.418 2.44-5.425 4.205-8.671 5.229l-195.536 61.395c-78.193 24.554-129.065-18.279-142.769-32.027-7.996-7.996-14.118-16.427-17.255-23.769l-87.104-204.883c-4.989-11.721-3.29-27.342 4.532-42.92 11.198-22.244 31.373-38.279 55.491-44.053 26.994-6.471 54.99 2.309 76.907 24.205 5.73 5.73 10.61 12.048 13.486 17.408l29.281 54.314c4.815 8.998 11.808 18.323 19.172 25.687 25.12 25.142 37.059 13.639 42.136 8.758 43.813-42.288 273.511-272.966 273.511-272.966 8.17-8.17 6.471-23.66-3.747-33.857-10.196-10.174-25.708-11.917-33.857-3.791l-64.532 64.511c-8.323 8.344-21.743 8.344-30.066 0-8.323-8.257-8.323-21.743 0-30.044l64.532-64.554c8.148-8.126 6.449-23.617-3.747-33.791-10.196-10.218-25.73-11.917-33.835-3.791l-64.554 64.511c-8.323 8.323-21.787 8.323-30.066 0-8.323-8.257-8.323-21.743 0-30.066l64.532-64.532c8.148-8.148 6.384-23.639-3.791-33.835-10.174-10.174-25.665-11.917-33.835-3.747l-64.532 64.511c-8.279 8.301-21.765 8.301-30.066 0-8.279-8.301-8.279-21.787 0-30.044l64.532-64.554c8.17-8.17 6.427-23.66-3.747-33.857-10.24-10.196-25.73-11.917-33.857-3.769l-78.563 78.628c11.22 16.863 8.17 41.33-8.475 58.040-18.649 18.628-47.343 20.349-63.944 3.704 16.602 16.623 14.968 45.273-3.726 63.944-18.693 18.649-47.321 20.371-63.922 3.769 16.602 16.602 14.924 45.229-3.791 63.879-18.649 18.693-47.277 20.392-63.922 3.791 16.645 16.602 14.924 45.229-3.747 63.944-17.473 17.473-43.508 19.848-60.437 6.536l-127.213 127.213c-8.301 8.323-21.787 8.323-30.088 0-8.279-8.279-8.279-21.765 0-30.088l126.886-126.864-37.626-37.626c-16.602-16.58-14.924-45.208 3.791-63.922 18.649-18.649 47.277-20.371 63.901-3.747-16.623-16.623-14.924-45.229 3.769-63.922 18.649-18.628 47.299-20.392 63.922-3.769-16.623-16.623-14.946-45.229 3.747-63.901 18.693-18.693 47.321-20.392 63.922-3.791-16.602-16.58-14.924-45.186 3.769-63.901 18.671-18.649 47.277-20.371 63.922-3.747l39.739 39.717 78.018-77.997c24.902-24.902 67.016-23.159 93.988 3.769 13.137 13.137 20.153 29.913 21.133 46.515 16.602 0.98 33.399 8.018 46.515 21.177 13.159 13.137 20.218 29.913 21.22 46.515 16.58 0.98 33.312 7.996 46.515 21.155 13.137 13.159 20.175 29.913 21.133 46.537 16.623 0.959 33.399 7.974 46.558 21.177 26.928 26.928 28.584 69.108 3.747 93.966l-32.898 32.92 135.078 135.056c8.301 8.279 8.301 21.765 0 30.066l-195.471 195.58zM1011.56 687.905l-172.137 172.137c-16.602 16.623-43.552 16.623-60.175 0l-60.175-60.131c-16.602-16.602-16.602-43.552 0-60.153l172.159-172.181c16.623-16.602 43.574-16.602 60.175 0l60.153 60.153c16.58 16.623 16.58 43.574 0 60.175zM921.21 600.235c-19.26 0-34.902 15.621-34.902 34.902s15.643 34.924 34.902 34.924c19.281 0 34.924-15.621 34.924-34.924-0.022-19.26-15.643-34.902-34.924-34.902z" />
<glyph unicode="&#xe904;" glyph-name="arbritation" d="M545.6 24l-33.6 57.6-33.6-57.6h-406.4v-41.6h880v41.6zM512 184c-198.4 0-360 161.6-360 360s161.6 360 360 360 360-161.6 360-360-161.6-360-360-360zM512 888c-190.4 0-344-153.6-344-344s153.6-344 344-344 344 155.2 344 344-153.6 344-344 344zM512 913.6v0-35.2c184 0 334.4-150.4 334.4-334.4 0-158.4-112-292.8-260.8-326.4l6.4-35.2c164.8 36.8 288 184 288 360 1.6 206.4-164.8 371.2-368 371.2zM377.6 595.2c25.6 0 41.6 24 41.6 59.2 0 25.6-16 40-43.2 38.4-25.6 0-40-14.4-40-40 0-35.2 16-57.6 41.6-57.6zM673.6 660.8c0-29.161-23.639-52.8-52.8-52.8s-52.8 23.639-52.8 52.8c0 29.161 23.639 52.8 52.8 52.8s52.8-23.639 52.8-52.8zM267.2 456h489.6v-9.6c0-9.6-16-17.6-35.2-17.6h-417.6c-19.2 0-36.8 8-36.8 17.6v9.6zM720 480c11.2 68.8-44.8 104-65.6 116.8 0 0-1.6 0-1.6 1.6-6.4 3.2-12.8 6.4-19.2 8l-12.8-14.4-12.8 12.8c0 0 0 0 0 0-6.4-1.6-12.8-4.8-17.6-8-1.6 0-3.2-1.6-4.8-1.6-8-4.8-16-4.8-24-3.2-11.2 3.2-20.8 12.8-30.4 22.4l-17.6 22.4c-6.4 9.6-11.2 17.6-14.4 24-4.8 9.6-17.6 14.4-27.2 9.6s-14.4-17.6-9.6-27.2c3.2-4.8 20.8-41.6 51.2-67.2v0c1.6 1.6 3.2 3.2 4.8 4.8l14.4 6.4c1.6 1.6 4.8 1.6 6.4 1.6 6.4 0 11.2-3.2 14.4-8 1.6-4.8 1.6-9.6 0-14.4-1.6-3.2-4.8-4.8-6.4-6.4l-4.8-1.6c3.2-1.6 4.8-1.6 8-3.2 6.4-1.6 11.2-3.2 17.6-3.2v-72h-68.8c0 16 3.2 59.2 25.6 78.4 1.6 0 3.2 0 4.8 0l14.4 6.4c4.8 1.6 6.4 8 3.2 11.2-1.6 3.2-6.4 4.8-9.6 1.6l-14.4-6.4c-1.6-1.6-3.2-3.2-4.8-4.8-27.2-24-30.4-70.4-30.4-88h-16c0 0 0 0 0 0h-4.8l-9.6 35.2c0 0 0 1.6 0 1.6l-20.8 52.8c-1.6 4.8-4.8 8-9.6 9.6v0l-22.4 9.6-9.6 8-17.6-16-17.6 16-9.6-8-20.8-9.6c-3.2-1.6-6.4-4.8-8-8l-20.8-52.8c0 0 0-1.6 0-1.6l-12.8-35.2h-20.8v-8c0-4.8 3.2-8 8-8h195.2c0 0 0 0 0 0h278.4c4.8 0 8 3.2 8 8v8h-36.8zM321.6 480l4.8 19.2v-14.4c0-1.6 0-3.2 0-4.8h-4.8zM382.4 480h-9.6l-8 11.2 12.8 86.4 12.8-86.4-8-11.2zM425.6 480c0 1.6 0 3.2 0 4.8v19.2l6.4-24h-6.4zM620.8 488v0l-12.8 17.6 12.8 84.8 12.8-84.8-12.8-17.6zM678.4 480h-4.8v43.2c8-11.2 9.6-25.6 4.8-43.2z" />
<glyph unicode="&#xe905;" glyph-name="book-plain" d="M817.6 881.6h-587.2c-41.6 0-76.8-35.2-76.8-76.8v-107.2c-14.4 0-24-11.2-24-24s11.2-24 24-24v-115.2c-14.4 0-24-11.2-24-24s11.2-24 24-24v-115.2c-14.4 0-24-11.2-24-24s11.2-24 24-24v-115.2c-14.4 0-24-11.2-24-24s11.2-24 24-24v-67.2c0-43.2 35.2-76.8 76.8-76.8h587.2c41.6 0 76.8 35.2 76.8 76.8v720c0 35.2-33.6 68.8-76.8 68.8zM833.6 86.4c0-3.2-3.2-4.8-4.8-4.8h-598.4c-3.2 0-4.8 3.2-4.8 4.8v67.2c14.4 0 24 11.2 24 24s-11.2 24-24 24v115.2c14.4 0 24 11.2 24 24s-11.2 24-24 24v115.2c14.4 0 24 11.2 24 24s-11.2 24-24 24v115.2c14.4 0 24 11.2 24 24s-11.2 24-24 24v113.6c0 3.2 3.2 4.8 4.8 4.8h598.4c3.2 0 4.8-3.2 4.8-4.8v-718.4zM752 718.4h-436.8c-3.2 0-6.4-3.2-6.4-6.4s3.2-6.4 6.4-6.4h436.8c3.2 0 6.4 3.2 6.4 6.4s-3.2 6.4-6.4 6.4zM752 636.8h-436.8c-3.2 0-6.4-3.2-6.4-6.4s3.2-6.4 6.4-6.4h436.8c3.2 0 6.4 3.2 6.4 6.4s-3.2 6.4-6.4 6.4zM752 555.2h-436.8c-3.2 0-6.4-3.2-6.4-6.4s3.2-6.4 6.4-6.4h436.8c3.2 0 6.4 3.2 6.4 6.4-1.6 3.2-3.2 6.4-6.4 6.4zM752 473.6h-436.8c-3.2 0-6.4-3.2-6.4-6.4s3.2-6.4 6.4-6.4h436.8c3.2 0 6.4 3.2 6.4 6.4s-3.2 6.4-6.4 6.4zM752 392h-436.8c-3.2 0-6.4-3.2-6.4-6.4s3.2-6.4 6.4-6.4h436.8c3.2 0 6.4 3.2 6.4 6.4s-3.2 6.4-6.4 6.4zM752 310.4h-436.8c-3.2 0-6.4-3.2-6.4-6.4s3.2-6.4 6.4-6.4h436.8c3.2 0 6.4 3.2 6.4 6.4s-3.2 6.4-6.4 6.4zM572.8 228.8h-257.6c-3.2 0-6.4-3.2-6.4-6.4s3.2-6.4 6.4-6.4h257.6c3.2 0 6.4 3.2 6.4 6.4-1.6 3.2-3.2 6.4-6.4 6.4z" />
<glyph unicode="&#xe906;" glyph-name="cargo-ship" d="M641.639 378.612l-0.166-34.859v-0.397h-623.861v-57.106c0 0 76.737-188.499 77.201-191.843 24.133 21.849 75.843 55.583 141.093 21.485 29.53-15.394 64.886-15.328 94.316 0.298 27.477 14.566 65.779 22.942 110.339-0.331 29.563-15.427 64.852-15.294 94.316 0.331 27.477 14.566 65.812 22.909 110.339-0.364 29.563-15.427 64.786-15.294 94.283 0.364 33.039 17.479 81.769 25.987 138.18-18.638l146.324 281.027-382.361 0.033zM52.835 361h176.25v229.086l43.831 35.257h-131.956v51.147h45.585v20.558h-45.585v104.545h-17.612v-104.578h-45.552v-20.558h45.552v-51.114h-123.349v-35.257h52.868l-0.033-229.086zM139.934 564.695h57.338v-52.637h-57.338v52.637zM139.934 480.343h57.338v-52.604h-57.338v52.604zM259.939 512.058h362.763v-151.058h-362.763v151.058zM641.572 548.473h362.796v-151.058h-362.796v151.058zM492.17 681.919h130.632v-151.058h-130.632v151.058zM336.842 615.577h130.632v-84.748h-130.632v84.748zM336.842 719.129h130.632v-84.748h-130.632v84.748zM641.572 755.544h130.566v-84.748h-130.566v84.748zM641.572 651.992h278.611v-84.748h-278.611v84.748z" />
<glyph unicode="&#xe907;" glyph-name="certificate-horizontal" d="M953.070 890.768h-882.14c-39.109 0-70.93-31.821-70.93-70.93v-598.48c0-39.109 31.821-70.93 70.93-70.93h514.389l-15.532-94.722c-2.922-17.83 2.975-33.982 15.779-43.198 12.8-9.217 29.977-9.711 45.967-1.285l110.979 58.414c3.097 1.589 11.628 1.589 14.725 0l110.979-58.414c7.592-3.996 15.455-5.987 22.989-5.987 8.333 0 16.261 2.436 22.981 7.275 12.8 9.217 18.697 25.373 15.779 43.203l-15.528 94.718h38.635c39.109 0 70.93 31.821 70.93 70.93v598.476c-0.004 39.113-31.825 70.93-70.934 70.93zM749.877 272.006c-68.162 0-123.621 55.459-123.621 123.621s55.459 123.621 123.621 123.621 123.621-55.459 123.621-123.621c0-68.162-55.459-123.621-123.621-123.621zM785.557 123.434c-20.675 10.887-50.689 10.887-71.36 0l-78.461-41.298 24.943 152.151c26.455-14.685 56.862-23.075 89.202-23.075s62.743 8.394 89.202 23.075l9.719-59.318c0.024-0.097 0.032-0.203 0.053-0.3l15.171-92.537-78.469 41.302zM963.203 221.358c0-5.492-4.641-10.133-10.133-10.133h-48.601l-11.102 67.724c-0.045 0.268-0.118 0.523-0.17 0.79 25.677 31.688 41.103 72.016 41.103 115.888 0 101.689-82.729 184.418-184.418 184.418s-184.418-82.729-184.418-184.418c0-43.871 15.426-84.192 41.103-115.888-0.053-0.263-0.126-0.523-0.17-0.786l-11.11-67.781c-0.34 0.012-0.669 0.053-1.009 0.053h-523.347c-5.492 0-10.133 4.641-10.133 10.133v598.48c0 5.492 4.641 10.133 10.133 10.133h882.14c5.492 0 10.133-4.641 10.133-10.133v-598.48zM845.564 715.826h-689.036c-16.792 0-30.399-13.606-30.399-30.399s13.606-30.399 30.399-30.399h689.036c16.792 0 30.399 13.606 30.399 30.399s-13.606 30.399-30.399 30.399zM448.355 550.993h-291.827c-16.792 0-30.399-13.606-30.399-30.399s13.606-30.399 30.399-30.399h291.827c16.792 0 30.399 13.606 30.399 30.399s-13.606 30.399-30.399 30.399z" />
<glyph unicode="&#xe908;" glyph-name="certificate-small-badge" d="M272.147 717.943h256.11c13.256 0 24.011 10.754 24.011 24.011 0 13.261-10.754 24.011-24.011 24.011h-256.11c-13.261 0-24.011-10.75-24.011-24.011s10.75-24.011 24.011-24.011zM272.147 599.492h348.954c13.256 0 24.011 10.75 24.011 24.011 0 13.259-10.754 24.011-24.011 24.011h-348.954c-13.261 0-24.011-10.752-24.011-24.011 0-13.263 10.75-24.011 24.011-24.011zM174.722 887.968h543.804v-376.42c9.477-2.74 17.614-6.841 24.267-10.572 11.256 6.315 26.736 13.72 45.841 13.72 0.648 0 1.28-0.055 1.923-0.072v373.344c0 39.781-32.251 72.032-72.032 72.032h-543.804c-39.781 0-72.032-32.251-72.032-72.032v-802.654c0-39.781 32.251-72.032 72.032-72.032h436.189v72.032h-436.189v802.654zM901.414 333.355c-5.359 4.773-11.448 10.185-12.778 14.296-1.457 4.495 0.24 12.377 1.87 20.006 2.569 11.955 5.482 25.502-1.914 35.663-7.455 10.255-21.329 11.66-33.564 12.901-7.34 0.749-15.655 1.587-19.367 4.295-3.63 2.641-6.951 10.214-9.88 16.894-4.98 11.345-10.617 24.2-22.834 28.164-2.247 0.73-4.639 1.1-7.105 1.1-9.352 0-18.327-5.21-27.002-10.252-6.848-3.976-13.928-8.087-18.839-8.087-4.915 0-11.991 4.111-18.843 8.087-8.675 5.042-17.653 10.252-27.002 10.252-2.466 0-4.853-0.37-7.105-1.1-12.212-3.964-17.859-16.822-22.839-28.164-2.932-6.68-6.252-14.257-9.876-16.894-3.724-2.708-12.039-3.551-19.367-4.295-12.236-1.241-26.107-2.648-33.567-12.901-7.395-10.156-4.483-23.706-1.914-35.663 1.638-7.628 3.335-15.513 1.87-20.008-1.333-4.108-7.414-9.52-12.778-14.293-9.328-8.298-19.898-17.703-19.898-30.755 0-13.050 10.569-22.455 19.898-30.753 5.364-4.771 11.448-10.183 12.783-14.296 1.455-4.492-0.235-12.38-1.875-20.006-2.569-11.955-5.482-25.502 1.914-35.663 7.46-10.255 21.333-11.66 33.567-12.903 7.335-0.747 15.65-1.585 19.367-4.293 3.63-2.644 6.951-10.214 9.88-16.896 4.975-11.343 10.622-24.195 22.834-28.162 2.252-0.732 4.644-1.097 7.11-1.097 9.347 0 18.322 5.21 26.997 10.25 6.848 3.976 13.928 8.089 18.843 8.089 4.91 0 11.991-4.111 18.839-8.089 8.675-5.040 17.653-10.25 27.002-10.25 2.466 0 4.857 0.37 7.11 1.097 12.207 3.967 17.849 16.824 22.824 28.164 2.936 6.68 6.255 14.257 9.885 16.894 3.719 2.708 12.034 3.551 19.367 4.295 12.241 1.241 26.107 2.648 33.564 12.901 7.395 10.159 4.483 23.708 1.914 35.663-1.638 7.626-3.335 15.513-1.866 20.006 1.333 4.113 7.414 9.525 12.774 14.298 9.333 8.296 19.898 17.701 19.898 30.75 0 13.052-10.569 22.457-19.898 30.755zM749.997 240.247c-34.441 0-62.358 27.917-62.358 62.358 0 34.438 27.917 62.355 62.358 62.355 34.436 0 62.353-27.917 62.353-62.355 0-34.441-27.917-62.358-62.353-62.358zM808.59 122.252c-4.075-1.325-8.365-1.995-12.752-1.995-14.274 0-26.421 7.054-36.179 12.723-2.766 1.609-7.071 4.106-9.659 5.234-2.593-1.128-6.893-3.628-9.664-5.234-9.753-5.664-21.905-12.723-36.169-12.723v0c-4.389 0-8.68 0.67-12.759 1.993-12.053 3.914-19.758 12.123-25.261 20.959v-197.338c0-3.916 2.317-7.458 5.899-9.035 3.578-1.573 7.755-0.876 10.646 1.77l67.318 61.901 67.313-61.901c1.851-1.71 4.25-2.605 6.682-2.605 1.337 0 2.687 0.274 3.957 0.836 3.587 1.573 5.899 5.119 5.899 9.035v197.434c-5.525-8.807-13.323-17.177-25.271-21.052z" />
<glyph unicode="&#xe909;" glyph-name="certificate-big-bagde" d="M745.834 70.033c7.657-1.222 15.476 0.652 21.748 5.254 6.191 4.48 10.508 11.404 11.648 19.101l6.883 45.736c1.385 9.204 7.127 17.024 15.436 21.219l41.419 20.689c7.005 3.543 12.259 9.612 14.621 16.983 2.444 7.453 1.67 15.436-1.833 22.359l-21.341 41.256c-4.195 8.064-4.195 17.879 0 26.025l21.341 41.216c3.503 6.924 4.236 14.906 1.833 22.359-2.403 7.412-7.657 13.44-14.621 16.983l-41.419 20.689c-8.308 4.195-14.051 12.014-15.436 21.219l-6.883 45.736c-1.14 7.697-5.457 14.58-11.648 19.060-6.272 4.643-14.092 6.516-21.748 5.254l-45.818-7.657c-9.082-1.507-18.286 1.507-24.803 8.064l-32.541 33.070c-5.498 5.498-12.87 8.593-20.689 8.593-7.697 0-15.232-3.136-20.689-8.593l-32.541-33.070c-6.476-6.598-15.721-9.571-24.803-8.064l-45.736 7.535c-7.657 1.263-15.476-0.611-21.789-5.254-6.231-4.48-10.508-11.363-11.648-19.060l-6.842-45.736c-1.425-9.204-7.127-17.024-15.436-21.219l-41.46-20.689c-6.883-3.543-12.218-9.571-14.58-16.983-2.403-7.453-1.711-15.436 1.792-22.359l21.341-41.216c4.236-8.105 4.236-17.92 0-26.025l-21.341-41.256c-3.503-6.924-4.195-14.906-1.792-22.359 2.403-7.372 7.657-13.44 14.58-16.983l41.46-20.689c8.308-4.195 14.010-12.014 15.436-21.219l6.842-45.736c1.14-7.657 5.417-14.58 11.648-19.101 6.272-4.602 14.092-6.476 21.789-5.254l45.736 7.535c9.082 1.588 18.327-1.466 24.803-8.023l32.541-32.989c5.498-5.62 12.951-8.716 20.689-8.716 7.779 0 15.232 3.095 20.689 8.716l32.541 32.989c6.516 6.557 15.761 9.612 24.803 8.023l45.818-7.412zM621.943 103.429c-97.338 0-176.47 79.133-176.47 176.43s79.173 176.511 176.47 176.511c97.338 0 176.47-79.255 176.47-176.511s-79.092-176.43-176.47-176.43zM621.983 430.915c-83.124 0-150.812-67.607-150.812-150.772s67.729-150.772 150.812-150.772c83.205 0 150.812 67.607 150.812 150.772s-67.607 150.772-150.812 150.772zM884.795 37.003l-82.065 82.106-4.154-27.694c-1.955-12.748-9.041-24.518-19.508-32.052-10.385-7.575-23.377-10.793-36.329-8.675l-45.859 7.494c-3.788 0.244-6.068-0.815-7.738-2.525l-7.82-7.86 107.194-107.153c4.154-4.154 10.141-5.62 15.68-3.951 5.539 1.751 9.612 6.353 10.752 12.096l9.652 52.008 52.171 9.774c5.702 1.059 10.304 5.172 11.974 10.752 1.711 5.58 0.163 11.648-3.951 15.68zM548.553 58.385l-47.243-7.697c-13.236-2.036-26.065 1.14-36.491 8.797-10.385 7.494-17.472 19.223-19.427 32.052l-4.154 27.572-82.024-82.106c-4.073-4.073-5.58-10.1-3.91-15.639 1.751-5.58 6.394-9.612 12.014-10.752l52.131-9.734 9.774-52.090c1.059-5.743 5.172-10.345 10.711-12.096 5.498-1.67 11.526-0.204 15.598 3.91l107.153 107.194-7.82 7.901c-1.711 1.751-3.991 2.688-6.313 2.688zM668.738 788.254h-384.26c-13.847 0-25.047-11.2-25.047-25.047-0.041-13.929 11.159-25.088 25.047-25.088h384.26c13.806 0 25.047 11.159 25.047 25.006s-11.281 25.129-25.047 25.129zM668.738 659.801h-384.26c-13.847 0-25.047-11.2-25.047-24.966-0.041-13.847 11.159-25.088 25.047-25.088h384.26c13.806 0 25.047 11.159 25.047 25.047 0 13.806-11.281 25.006-25.047 25.006zM402.057 136.662l-18.938 9.449c-4.847 2.444-9.245 5.58-13.318 9.082h-161.768c-11.078 0-20.078 9.041-20.078 20.038v711.298c0 11.118 9.001 20.119 20.078 20.119h538.33c11.037 0 20.078-9.001 20.078-20.119v-366.828c8.96-2.118 17.513-6.028 25.006-11.607 14.662-10.467 24.803-27.206 27.531-45.451l0.815 423.846c0.081 40.523-32.907 73.512-73.431 73.512h-538.33c-40.523 0-73.512-33.030-73.512-73.512v-711.339c0-40.564 33.030-73.553 73.512-73.553h159.039l34.985 35.066z" />
<glyph unicode="&#xe90a;" glyph-name="star" d="M878.423 960h-732.846v-1024h732.846v1024zM775.269 856.457l26.087-26.084-133.474-133.474-26.084 26.084 133.472 133.474zM512.008 807.475l97.687-141.694 169.034-52.068-112.779-137.11 10.914-176.399-164.839 67.678-164.822-67.678 10.881 176.399-112.762 137.11 169.025 52.068 97.662 141.694zM251.347 856.457l133.466-133.474-26.093-26.084-133.466 133.474 26.093 26.084zM306.653 474.627l26.093-26.084-133.466-133.474-26.095 26.084 133.469 133.474zM853.424-35.798h-682.823v260.341h682.823v-260.341zM827.337 315.066l-133.474 133.474 26.084 26.084 133.474-133.474-26.084-26.084zM262.295 163.796h499.416v-69.423h-499.416v69.423zM382.205 61.831h259.595v-47.729h-259.595v47.729z" />
<glyph unicode="&#xe90b;" glyph-name="checklist-pad" d="M519.754 886.858h-22.528c-12.037 0-21.795 9.76-21.795 21.795v0.733c0 27.954-22.662 50.614-50.616 50.614h-1.17c-27.954 0-50.614-22.66-50.614-50.614v-0.733c0-12.037-9.76-21.797-21.795-21.797h-22.528c-23.995 0-43.446-19.451-43.446-43.446v-0.878c0-23.995 19.451-43.446 43.446-43.446h191.051c23.994 0 43.445 19.453 43.445 43.446v0.88c-0.002 23.994-19.453 43.446-43.45 43.446zM424.229 886.858c-12.119 0-21.942 9.825-21.942 21.942 0 12.119 9.825 21.944 21.942 21.944 12.119 0 21.942-9.825 21.942-21.944s-9.823-21.942-21.942-21.942zM521.92 38.4h-368.32c-32.316 0-58.514 26.197-58.514 58.514v702.173c0 32.316 26.197 58.514 43.885 58.514h118.553c-0.989-4.859-1.523-9.895-1.523-15.072 0-40.087 32.614-72.701 72.707-72.701h191.043c40.095 0 72.706 32.614 72.706 73.586 0 4.857-0.52 9.592-1.431 14.187h89.202c46.948 0 73.144-26.197 73.144-58.514v-439.597c-4.862 0.303-9.69 0.74-14.627 0.74-20.236 0-39.774-2.851-58.517-7.703v344.161h-512v-585.144h337.197c1.603-25.712 7.222-50.323 16.494-73.142zM738.744 316.342c-105.029 0-190.17-85.144-190.17-190.171s85.139-190.171 190.17-190.171 190.17 85.144 190.17 190.171-85.141 190.171-190.17 190.171zM863.008 165.244l-117.029-131.658c-5.764-6.487-13.794-9.813-21.879-9.813-6.422 0-12.879 2.1-18.265 6.413l-73.144 58.514c-12.614 10.086-14.664 28.501-4.563 41.116 10.084 12.628 28.506 14.672 41.121 4.57l51.448-41.157 98.578 110.9c10.722 12.072 29.222 13.171 41.301 2.428 12.082-10.742 13.166-29.228 2.431-41.311zM607.086 448h-234.056c-8.080 0-14.629 6.551-14.629 14.629v14.629c0 8.080 6.549 14.629 14.629 14.629h234.056c8.078 0 14.63-6.551 14.63-14.629v-14.629c-0.003-8.078-6.552-14.629-14.63-14.629zM607.086 579.658h-234.056c-8.080 0-14.629 6.551-14.629 14.629v14.629c0 8.080 6.549 14.629 14.629 14.629h234.056c8.078 0 14.63-6.551 14.63-14.629v-14.629c-0.003-8.080-6.552-14.629-14.63-14.629zM533.942 330.971h-160.912c-8.080 0-14.629 6.551-14.629 14.629v14.629c0 8.080 6.549 14.629 14.629 14.629h160.912c8.082 0 14.63-6.549 14.63-14.629v-14.629c-0.003-8.078-6.549-14.629-14.63-14.629zM504.686 199.314h-131.658c-8.080 0-14.629 6.551-14.629 14.629v14.629c0 8.080 6.549 14.629 14.629 14.629h131.658c8.080 0 14.629-6.549 14.629-14.629v-14.629c0-8.078-6.549-14.629-14.629-14.629zM330.392 633.757l-53.875-60.61c-2.654-2.987-6.35-4.519-10.073-4.519-2.957 0-5.928 0.967-8.408 2.953l-33.673 26.937c-5.808 4.643-6.75 13.12-2.102 18.927 4.641 5.814 13.125 6.755 18.931 2.105l23.684-18.946 45.382 51.054c4.936 5.557 13.453 6.064 19.013 1.118 5.565-4.946 6.064-13.456 1.121-19.019zM330.392 503.606l-53.875-60.608c-2.654-2.987-6.35-4.518-10.073-4.518-2.957 0-5.928 0.965-8.408 2.953l-33.673 26.937c-5.808 4.643-6.75 13.12-2.102 18.927 4.641 5.814 13.125 6.755 18.931 2.105l23.684-18.947 45.382 51.054c4.936 5.557 13.453 6.064 19.013 1.116 5.565-4.944 6.064-13.456 1.121-19.019zM330.392 379.138l-53.875-60.61c-2.654-2.985-6.35-4.518-10.073-4.518-2.957 0-5.928 0.965-8.408 2.953l-33.673 26.939c-5.808 4.641-6.75 13.12-2.102 18.927 4.641 5.814 13.125 6.755 18.931 2.105l23.684-18.946 45.382 51.054c4.936 5.557 13.453 6.064 19.013 1.118 5.565-4.949 6.064-13.459 1.121-19.023zM330.392 253.791l-53.875-60.61c-2.654-2.987-6.35-4.518-10.073-4.518-2.957 0-5.928 0.965-8.408 2.953l-33.673 26.939c-5.808 4.641-6.75 13.12-2.102 18.927 4.641 5.814 13.125 6.755 18.931 2.105l23.684-18.946 45.382 51.054c4.936 5.557 13.453 6.064 19.013 1.118 5.565-4.949 6.064-13.461 1.121-19.023z" />
<glyph unicode="&#xe90c;" glyph-name="circle-user-group" d="M512 72c44.112 0 80 35.888 80 80v16c0 44.112-35.888 80-80 80s-80-35.888-80-80v-16c0-44.112 35.888-80 80-80zM464 168c0 26.466 21.532 48 48 48s48-21.534 48-48v-16c0-26.466-21.532-48-48-48s-48 21.534-48 48v16zM576.144 71.476h-13.58c-5.556 0-10.714-2.882-13.626-7.614-9.332-15.166-22.794-23.862-36.938-23.862s-27.606 8.696-36.938 23.862c-2.912 4.732-8.070 7.614-13.626 7.614h-13.58c-35.962 0-63.856-34.122-63.856-63.476v-34.656c0-16.18 13.164-29.344 29.344-29.344h197.378c16.142 0 29.276 13.134 29.276 29.278v34.722c0 13.928-6.488 29.516-17.356 41.694-12.534 14.046-29.048 21.782-46.498 21.782zM608-24h-192v32c0 10.808 12.406 31.476 31.856 31.476h5.136c15.14-20.118 36.232-31.476 59.008-31.476s43.868 11.358 59.006 31.476h5.136c19.45 0 31.856-20.668 31.856-31.476v-32zM512 776c44.112 0 80 35.888 80 80v16c0 44.112-35.888 80-80 80s-80-35.888-80-80v-16c0-44.112 35.888-80 80-80zM464 872c0 26.466 21.532 48 48 48s48-21.534 48-48v-16c0-26.466-21.532-48-48-48s-48 21.534-48 48v16zM576.144 775.476h-13.58c-5.556 0-10.714-2.882-13.626-7.614-9.332-15.164-22.794-23.862-36.938-23.862s-27.606 8.698-36.938 23.862c-2.912 4.732-8.070 7.614-13.626 7.614h-13.58c-35.962 0-63.856-34.122-63.856-63.476v-34.656c0-16.18 13.164-29.344 29.344-29.344h197.378c16.142 0 29.276 13.134 29.276 29.278v34.722c0 13.928-6.488 29.516-17.356 41.694-12.534 14.046-29.048 21.782-46.498 21.782zM608 680h-192v32c0 10.808 12.406 31.476 31.856 31.476h5.136c15.14-20.118 36.232-31.476 59.008-31.476s43.868 11.358 59.006 31.476h5.136c19.45 0 31.856-20.668 31.856-31.476v-32zM816 520v-16c0-44.112 35.888-80 80-80s80 35.888 80 80v16c0 44.112-35.888 80-80 80s-80-35.888-80-80zM848 520c0 26.466 21.532 48 48 48s48-21.534 48-48v-16c0-26.466-21.532-48-48-48s-48 21.534-48 48v16zM1006.644 401.694c-12.536 14.046-29.048 21.782-46.5 21.782h-13.58c-5.556 0-10.714-2.882-13.626-7.614-9.332-15.164-22.794-23.862-36.938-23.862s-27.606 8.698-36.938 23.862c-2.912 4.732-8.070 7.614-13.626 7.614h-13.58c-35.962 0-63.856-34.122-63.856-63.476v-34.656c0-16.18 13.164-29.344 29.344-29.344h197.378c16.142 0 29.276 13.134 29.276 29.278v34.722c0.002 13.928-6.486 29.516-17.354 41.694zM992 328h-192v32c0 10.808 12.406 31.476 31.856 31.476h5.136c15.14-20.118 36.232-31.476 59.008-31.476s43.868 11.358 59.006 31.476h5.136c19.45 0 31.856-20.668 31.856-31.476v-32zM128 424c44.112 0 80 35.888 80 80v16c0 44.112-35.888 80-80 80s-80-35.888-80-80v-16c0-44.112 35.888-80 80-80zM80 520c0 26.466 21.532 48 48 48s48-21.534 48-48v-16c0-26.466-21.532-48-48-48s-48 21.534-48 48v16zM256 325.278v34.722c0 13.928-6.488 29.516-17.356 41.694-12.536 14.046-29.048 21.782-46.5 21.782h-13.58c-5.556 0-10.714-2.882-13.626-7.614-9.332-15.164-22.794-23.862-36.938-23.862s-27.606 8.698-36.938 23.862c-2.912 4.732-8.070 7.614-13.626 7.614h-13.58c-35.962 0-63.856-34.122-63.856-63.476v-34.656c0-16.18 13.164-29.344 29.344-29.344h197.378c16.144 0 29.278 13.134 29.278 29.278zM224 328h-192v32c0 10.808 12.406 31.476 31.856 31.476h5.136c15.14-20.118 36.232-31.476 59.008-31.476s43.868 11.358 59.006 31.476h5.136c19.45 0 31.856-20.668 31.856-31.476v-32zM361.294 86.698c-78.83 33.672-144.98 93.692-186.262 169.002-4.248 7.748-13.97 10.586-21.72 6.338s-10.588-13.972-6.34-21.72c44.71-81.568 116.362-146.576 201.752-183.048 2.050-0.876 4.18-1.29 6.278-1.29 6.214 0 12.126 3.644 14.722 9.72 3.47 8.126-0.304 17.526-8.43 20.998zM870.68 262.022c-7.748 4.25-17.474 1.41-21.722-6.338-41.276-75.292-107.412-135.302-186.22-168.972-8.126-3.47-11.9-12.874-8.428-21 2.596-6.076 8.506-9.718 14.722-9.718 2.096 0 4.228 0.414 6.278 1.292 85.368 36.472 157.002 101.468 201.708 183.016 4.25 7.748 1.412 17.474-6.338 21.72zM634.924 803.908c85.25-28.786 158.108-87.116 205.152-164.244 3.014-4.942 8.28-7.67 13.674-7.67 2.838 0 5.714 0.756 8.316 2.342 7.544 4.602 9.928 14.448 5.328 21.992-50.95 83.534-129.876 146.712-222.234 177.898-8.368 2.826-17.452-1.668-20.278-10.042-2.826-8.37 1.67-17.45 10.042-20.276zM161.932 634.34c2.602-1.588 5.476-2.344 8.316-2.344 5.394 0 10.662 2.728 13.674 7.67 47.056 77.144 119.93 135.478 205.202 164.258 8.374 2.826 12.87 11.904 10.044 20.276-2.828 8.374-11.912 12.872-20.276 10.042-92.382-31.18-171.326-94.364-222.288-177.914-4.6-7.54-2.216-17.386 5.328-21.988z" />
<glyph unicode="&#xe90d;" glyph-name="commercial" d="M545.6 19.2l-33.6 57.6-33.6-57.6h-411.2v-43.2h889.6v43.2zM478.4 438.4c0-3.2 3.2-3.2 6.4-4.8 1.6-1.6 4.8 1.6 6.4 1.6 11.2 4.8 27.2-1.6 38.4-1.6 8 0 8 11.2 0 11.2-14.4 0-25.6 3.2-40 1.6 0 1.6 0 1.6-1.6 3.2-3.2 4.8-6.4 6.4-9.6 4.8 0 0 0 1.6 0 1.6-1.6 1.6-1.6 1.6-3.2 3.2 3.2 6.4 6.4 14.4 3.2 20.8 0 1.6-3.2 3.2-4.8 3.2-8 0-14.4-8-19.2-12.8-12.8-11.2-22.4-25.6-33.6-38.4-4.8-6.4 4.8-11.2 9.6-6.4 9.6 11.2 19.2 24 28.8 33.6-3.2-4.8-4.8-8-8-11.2-3.2-6.4 4.8-11.2 9.6-6.4 1.6 1.6 1.6 3.2 3.2 3.2 0 0 0-1.6-1.6-1.6 0 0 0 0 0 0s0-1.6 0-1.6c-3.2-6.4 6.4-9.6 9.6-4.8 1.6 1.6 1.6 3.2 1.6 3.2 3.2 1.6 3.2 0 4.8-1.6v0zM512 180.8c-201.6 0-364.8 163.2-364.8 364.8s163.2 364.8 364.8 364.8 364.8-163.2 364.8-364.8-163.2-364.8-364.8-364.8zM512 894.4c-192 0-348.8-156.8-348.8-348.8s156.8-348.8 348.8-348.8 348.8 156.8 348.8 348.8-156.8 348.8-348.8 348.8zM816 694.4l33.6 12.8c-59.2 124.8-188.8 212.8-337.6 212.8v-35.2c134.4 0 249.6-78.4 304-190.4zM587.2 652.8h49.6v-57.6l25.6 38.4v33.6c0 1.6 0 3.2-1.6 4.8l-64 64c-1.6 1.6-3.2 1.6-4.8 1.6h-201.6c-12.8 0-22.4-9.6-22.4-22.4v-342.4c0-12.8 9.6-22.4 22.4-22.4h249.6c12.8 0 22.4 9.6 22.4 22.4v97.6l-25.6-38.4v-56h-243.2v337.6h184v-51.2c0-4.8 4.8-9.6 9.6-9.6zM689.6 558.4l-11.2 6.4c-1.6 1.6-3.2 0-4.8-1.6l-56-86.4-9.6 8 56 86.4c1.6 1.6 0 3.2-1.6 4.8l-11.2 6.4c-1.6 1.6-3.2 0-4.8-1.6l-84.8-128c0 0 0-1.6 0-1.6l-1.6-44.8c0-1.6 0-3.2 1.6-3.2s3.2 0 3.2 0l40 19.2c0 0 1.6 0 1.6 1.6l84.8 128c1.6 3.2 0 4.8-1.6 6.4zM724.8 611.2l-38.4 24c-1.6 1.6-3.2 0-4.8-1.6l-25.6-38.4c-1.6-1.6 0-3.2 1.6-4.8l38.4-24c1.6-1.6 3.2 0 4.8 1.6l25.6 38.4c0 1.6 0 3.2-1.6 4.8zM430.4 657.6h72c4.8 0 9.6 4.8 9.6 9.6s-4.8 9.6-9.6 9.6h-72c-4.8 0-9.6-4.8-9.6-9.6s4.8-9.6 9.6-9.6zM568 620.8c0 4.8-4.8 9.6-9.6 9.6h-128c-4.8 0-9.6-4.8-9.6-9.6s4.8-9.6 9.6-9.6h128c4.8 0 9.6 4.8 9.6 9.6zM430.4 564.8h72c4.8 0 9.6 4.8 9.6 9.6s-4.8 9.6-9.6 9.6h-72c-4.8 0-9.6-4.8-9.6-9.6s4.8-9.6 9.6-9.6zM430.4 518.4h72c4.8 0 9.6 4.8 9.6 9.6s-4.8 9.6-9.6 9.6h-72c-4.8 0-9.6-4.8-9.6-9.6s4.8-9.6 9.6-9.6z" />
<glyph unicode="&#xe90e;" glyph-name="corporate" d="M545.6 24l-33.6 57.6-33.6-57.6h-406.4v-41.6h880v41.6zM512 184c-198.4 0-360 161.6-360 360s161.6 360 360 360 360-161.6 360-360-161.6-360-360-360zM512 888c-190.4 0-344-153.6-344-344s153.6-344 344-344 344 155.2 344 344-153.6 344-344 344zM846.4 544h35.2c0 204.8-166.4 369.6-369.6 369.6v-35.2c184 0 334.4-148.8 334.4-334.4zM628.8 705.6v32l-108.8 25.6-129.6-30.4v-27.2l-28.8-6.4v-19.2l8 1.6v-332.8l137.6-16 24 3.2v72l38.4 1.6v-70.4l25.6 3.2v68.8l33.6 1.6v-67.2l16 1.6v331.2l14.4-3.2v24l-30.4 6.4zM412.8 726.4l68.8 16v-14.4l-68.8-14.4v12.8zM441.6 611.2l57.6 6.4v-19.2l-57.6-6.4v19.2zM380.8 603.2l51.2 6.4v-17.6l-51.2-4.8c0-1.6 0 16 0 16zM432 432l-51.2 1.6v17.6l51.2-1.6v-17.6zM432 464h-51.2v17.6h51.2v-17.6zM432 496h-51.2v17.6l51.2 1.6v-19.2zM432 528l-51.2-1.6v17.6l51.2 3.2v-19.2zM432 560l-51.2-3.2v17.6l51.2 4.8v-19.2zM432 622.4l-51.2-6.4v17.6l51.2 8v-19.2zM432 652.8l-51.2-8v17.6l51.2 8v-17.6zM497.6 430.4l-56 1.6v19.2l57.6-1.6v-19.2zM497.6 464h-57.6v19.2h57.6v-19.2zM499.2 497.6l-57.6-1.6v19.2l57.6 1.6v-19.2zM499.2 531.2l-57.6-3.2v19.2l57.6 3.2v-19.2zM499.2 564.8l-57.6-4.8v19.2l57.6 4.8v-19.2zM499.2 632l-57.6-8v19.2l57.6 8v-19.2zM499.2 662.4l-57.6-9.6v19.2l57.6 9.6v-19.2zM540.8 740.8l70.4-16v-14.4l-70.4 14.4v16zM636.8 544v-19.2l-49.6 3.2v19.2l49.6-3.2zM587.2 558.4v19.2l49.6-4.8v-19.2l-49.6 4.8zM587.2 496v19.2l49.6-1.6v-19.2l-49.6 1.6zM635.2 483.2v-19.2h-49.6v19.2h49.6zM520 652.8l57.6-8v-20.8l-57.6 8v20.8zM520 619.2l56-6.4v-20.8l-56 6.4v20.8zM521.6 585.6l56-4.8v-20.8l-56 4.8c0 0 0 20.8 0 20.8zM521.6 550.4l56-3.2v-19.2l-56 3.2c0 0 0 19.2 0 19.2zM577.6 432l-54.4-1.6v20.8l54.4 1.6v-20.8zM577.6 464h-54.4v20.8h54.4v-20.8zM577.6 497.6l-56 1.6v20.8l56-1.6v-20.8zM577.6 656l-56 9.6v20.8l56-9.6v-20.8zM636.8 433.6l-51.2-1.6v19.2l51.2 1.6v-19.2zM636.8 585.6l-51.2 4.8v19.2l51.2-6.4v-17.6zM587.2 622.4v19.2l49.6-8v-19.2l-49.6 8zM636.8 646.4l-51.2 8v19.2l51.2-9.6v-17.6z" />
<glyph unicode="&#xe90f;" glyph-name="djempolanku" d="M691.2 449.6c8 11.2 11.2 24 11.2 38.4 0 16-6.4 30.4-17.6 41.6s-25.6 17.6-41.6 17.6h-41.6c8 16 11.2 30.4 11.2 44.8 0 17.6-3.2 32-8 43.2s-12.8 19.2-24 24c-11.2 4.8-22.4 8-35.2 8-8 0-14.4-3.2-20.8-8-6.4-6.4-11.2-14.4-14.4-25.6-3.2-9.6-4.8-20.8-6.4-28.8-1.6-9.6-4.8-16-8-19.2-8-8-16-17.6-25.6-30.4-16-20.8-25.6-32-32-36.8h-64c-8 0-16-3.2-20.8-8-6.4-6.4-8-12.8-8-20.8v-148.8c0-8 3.2-16 8-20.8 6.4-6.4 12.8-8 20.8-8h67.2c3.2 0 14.4-3.2 32-9.6 19.2-6.4 35.2-11.2 51.2-16 14.4-3.2 28.8-4.8 44.8-4.8h30.4c22.4 0 40 6.4 52.8 19.2s19.2 28.8 19.2 51.2c9.6 11.2 14.4 25.6 14.4 41.6 0 3.2 0 6.4 0 9.6 6.4 9.6 9.6 20.8 9.6 33.6-3.2 1.6-3.2 6.4-4.8 12.8v0zM400 342.4c-3.2-3.2-6.4-4.8-11.2-4.8s-8 1.6-11.2 4.8c-3.2 3.2-4.8 6.4-4.8 11.2s1.6 8 4.8 11.2c3.2 3.2 6.4 4.8 11.2 4.8s8-1.6 11.2-4.8c3.2-3.2 4.8-6.4 4.8-11.2-1.6-4.8-1.6-8-4.8-11.2v0zM667.2 467.2c-3.2-6.4-8-11.2-12.8-11.2 1.6-3.2 4.8-6.4 6.4-11.2s1.6-9.6 1.6-12.8c0-11.2-4.8-19.2-12.8-27.2 3.2-4.8 4.8-9.6 4.8-16s-1.6-11.2-4.8-17.6c-3.2-6.4-6.4-9.6-11.2-12.8 0-4.8 1.6-9.6 1.6-12.8 0-25.6-14.4-38.4-44.8-38.4h-28.8c-20.8 0-46.4 6.4-80 17.6 0 0-3.2 1.6-6.4 3.2s-6.4 1.6-8 3.2c-1.6 0-4.8 1.6-8 3.2s-6.4 1.6-9.6 3.2c-1.6 0-4.8 1.6-8 1.6s-4.8 0-8 0h-8v148.8h8c3.2 0 4.8 0 8 1.6s6.4 3.2 9.6 6.4c3.2 3.2 6.4 4.8 9.6 8s6.4 6.4 9.6 9.6c3.2 4.8 6.4 8 8 9.6 1.6 3.2 4.8 6.4 8 9.6s4.8 6.4 4.8 6.4c8 11.2 14.4 17.6 17.6 20.8 6.4 6.4 11.2 14.4 14.4 25.6 3.2 9.6 4.8 20.8 6.4 28.8 1.6 9.6 4.8 16 9.6 19.2 14.4 0 25.6-3.2 30.4-11.2s8-19.2 8-33.6c0-9.6-3.2-20.8-11.2-36.8s-11.2-28.8-11.2-36.8h81.6c8 0 14.4-3.2 20.8-9.6s9.6-12.8 9.6-20.8c0-3.2-1.6-9.6-4.8-17.6v0zM896 432c0 4.8 0 11.2 0 16s0 9.6 0 14.4c1.6 9.6 6.4 19.2 11.2 27.2 4.8 9.6 9.6 19.2 9.6 24 3.2 16-4.8 25.6-16 32-8 4.8-16 8-20.8 11.2-3.2 9.6-6.4 19.2-9.6 27.2-1.6 9.6 0 20.8 1.6 30.4 1.6 11.2 3.2 20.8 1.6 25.6-4.8 28.8-35.2 25.6-49.6 28.8-6.4 8-11.2 16-17.6 24-9.6 17.6-9.6 44.8-16 52.8-12.8 27.2-41.6 12.8-56 12.8-8 6.4-16 11.2-24 16-14.4 14.4-24 38.4-32 46.4-11.2 12.8-25.6 9.6-36.8 4.8-8-3.2-14.4-8-20.8-11.2-9.6 3.2-19.2 4.8-30.4 8-17.6 9.6-35.2 28.8-43.2 32-14.4 6.4-27.2 0-35.2-8-6.4-6.4-11.2-12.8-16-17.6-9.6 0-20.8-1.6-30.4-1.6-19.2 1.6-43.2 16-52.8 16-16 1.6-25.6-6.4-32-19.2-3.2-8-6.4-16-9.6-20.8-9.6-3.2-17.6-8-27.2-11.2-19.2-3.2-46.4 0-56-1.6-16-3.2-20.8-16-24-27.2-1.6-8-1.6-17.6-1.6-22.4-8-6.4-16-12.8-22.4-20.8-17.6-9.6-43.2-12.8-51.2-19.2-25.6-14.4-9.6-41.6-8-56-4.8-8-9.6-17.6-14.4-25.6-6.4-8-14.4-12.8-22.4-19.2s-17.6-11.2-20.8-16c-11.2-12.8-8-25.6-1.6-36.8 4.8-8 9.6-14.4 12.8-19.2-1.6-9.6-3.2-19.2-4.8-30.4-8-19.2-25.6-38.4-28.8-46.4-4.8-28.8 22.4-41.6 33.6-51.2 1.6-9.6 3.2-20.8 4.8-30.4-1.6-19.2-12.8-43.2-12.8-52.8-1.6-28.8 30.4-30.4 43.2-36.8 4.8-9.6 9.6-17.6 14.4-25.6 3.2-9.6 3.2-19.2 3.2-30.4s1.6-20.8 1.6-25.6c4.8-16 17.6-20.8 30.4-20.8 9.6 0 17.6 0 22.4 0 6.4-6.4 14.4-14.4 22.4-20.8 11.2-16 17.6-41.6 24-49.6 9.6-12.8 22.4-12.8 35.2-11.2 8 3.2 16 6.4 22.4 8 9.6-4.8 17.6-8 27.2-12.8 8-4.8 14.4-12.8 20.8-20.8s12.8-16 17.6-19.2c6.4-4.8 12.8-6.4 19.2-6.4 6.4 1.6 11.2 3.2 17.6 8 8 4.8 12.8 11.2 17.6 14.4 9.6-1.6 19.2-1.6 30.4-1.6 19.2-6.4 40-22.4 49.6-25.6 16-4.8 27.2 3.2 33.6 12.8 4.8 6.4 9.6 14.4 12.8 19.2 9.6 1.6 19.2 4.8 28.8 8 19.2 0 44.8-8 54.4-8 16 1.6 24 12.8 27.2 24 3.2 8 3.2 17.6 4.8 22.4 8 4.8 16 9.6 24 16 9.6 3.2 19.2 4.8 30.4 6.4s20.8 3.2 25.6 4.8c16 6.4 19.2 19.2 19.2 30.4 0 9.6-1.6 17.6-1.6 22.4 6.4 8 11.2 14.4 17.6 22.4 3.2 3.2 6.4 6.4 11.2 8 4.8 3.2 9.6 6.4 14.4 8 9.6 4.8 19.2 8 22.4 11.2 20.8 19.2 3.2 43.2-1.6 57.6 3.2 9.6 6.4 19.2 9.6 28.8 9.6 17.6 32 32 36.8 41.6 16 27.2-11.2 43.2-19.2 56v0zM513.6 107.2c-187.2 0-340.8 152-340.8 339.2s152 339.2 340.8 339.2c187.2 0 340.8-152 340.8-339.2 0-185.6-153.6-339.2-340.8-339.2v0zM516.8 768c-177.6 0-321.6-144-321.6-320 0-177.6 144-320 321.6-320s321.6 144 321.6 320c-1.6 176-145.6 320-321.6 320v0zM516.8 147.2c-166.4 0-300.8 134.4-300.8 300.8 0 164.8 134.4 300.8 300.8 300.8 164.8 0 299.2-136 299.2-300.8s-134.4-300.8-299.2-300.8v0z" />
<glyph unicode="&#xe910;" glyph-name="document-folder" d="M857.693 466.937c-3.291 21.915-22.080 37.71-44.193 37.71h-358.214l-65.055 77c-13.788 16.19-34.025 26.391-55.315 26.391h-232.744c-16.585 0-32.347-7.766-43.074-20.467-10.694-12.735-15.268-30.175-12.471-46.529l6.186-36.394h-4.080c-13.031 0-25.37-5.298-33.794-15.17-8.556-9.905-12.274-22.804-10.267-35.67l72.261-468.844c4.376-28.2 28.661-48.964 57.191-48.964h750.157c13.031 0 25.37 5.726 33.794 15.499 8.457 9.872 12.274 22.672 10.332 35.538l-70.715 479.9zM679.343 816.826h-280.194c-19.316 0-34.979-17.44-34.979-36.789s15.696-36.789 34.979-36.789h280.194c19.382 0 35.012 17.44 35.012 36.789s-15.696 36.789-35.012 36.789zM1009.456 559.008c-8.062 9.378-19.875 15.268-32.281 15.268h-79.501l18.098-167.656 43.206-292.896 60.481 411.061c1.678 12.241-1.876 24.811-10.003 34.222zM296.943 892.378h489.114v-332.054h67.655v356.668c-0.033 23.561-19.711 43.008-43.271 43.008h-540.908c-25.864 0-46.134-21.29-46.134-47.154v-257.061h73.545v236.594zM679.343 681.616h-280.194c-16.815 0-30.833-13.294-34.222-29.582 23.988-6.121 45.805-19.184 62.225-38.434l5.1-5.528h247.091c19.382 0 35.012 17.44 35.012 36.789s-15.696 36.756-35.012 36.756z" />
<glyph unicode="&#xe911;" glyph-name="female-person" d="M473.312 451.904c-87.435 17.907-153.313 95.283-153.313 188.095 0 70.281 38.186 131.057 94.5 164.526 17.936-38.654 54.567-78.151 105-107.311 66.124-38.152 136.244-47.558 181.747-29.341 1.378-9.189 2.758-18.316 2.758-27.874 0-92.812-65.765-170.19-153.256-188.095 122.873 18.783 217.249 123.966 217.249 252.094 0.002 141.375-114.615 256.002-255.996 256.002-141.316 0-255.998-114.627-255.998-256.002 0-128.128 94.496-233.309 217.31-252.094zM704.006 384.004h-32c0-88.38-71.634-160.006-160.003-160.006-88.374 0-159.995 71.625-159.995 160.006h-32.007c-106 0-192.002-85.949-192.002-191.997v-192.006c0-35.379 28.628-64.001 64.003-64.001h640.001c35.368 0 64.001 28.621 64.001 64.001v192.006c0 106.048-85.879 191.997-191.997 191.997z" />
<glyph unicode="&#xe913;" glyph-name="four-pillars-building" d="M977.028 29.313h-930.491c-25.708 0-46.537-20.828-46.537-46.558 0-25.687 20.828-46.515 46.537-46.515h930.469c25.708 0 46.537 20.828 46.537 46.515-0.022 25.73-20.85 46.558-46.515 46.558zM104.685 150.295c-25.708 0-46.537-20.828-46.537-46.537s20.828-46.558 46.537-46.558h814.172c25.708 0 46.537 20.85 46.537 46.558s-20.828 46.537-46.537 46.537h-11.612v418.742h11.612c12.876 0 23.246 10.414 23.246 23.246s-10.414 23.246-23.246 23.246h-814.172c-12.854 0-23.246-10.414-23.246-23.246s10.414-23.246 23.246-23.246h11.634v-418.72h-11.634zM814.172 569.036v-418.72h-139.566v418.72h139.566zM581.532 569.036v-418.72h-139.566v418.72h139.566zM209.349 569.036h139.566v-418.72h-139.566v418.72zM46.537 657.36h930.469c0.153 0 0.327 0 0.458 0 25.73 0 46.537 20.828 46.537 46.537 0 20.436-13.159 37.756-31.438 44.031l-461.662 207.737c-12.135 5.447-26.013 5.447-38.17 0l-465.278-209.349c-20.022-9.020-31.024-30.763-26.406-52.201 4.597-21.438 23.551-36.754 45.491-36.754z" />
<glyph unicode="&#xe914;" glyph-name="graduation-hat" d="M449.6 308.8l-240 115.2v-123.2c0-30.4 22.4-65.6 49.6-78.4l185.6-89.6c27.2-12.8 72-12.8 99.2 0l185.6 89.6c27.2 12.8 49.6 48 49.6 78.4v120l-230.4-110.4c-28.8-16-72-16-99.2-1.6zM937.6 363.2v201.6h-1.6c0 8-6.4 17.6-20.8 24l-368 176c-27.2 12.8-72 12.8-99.2 0l-368-176c-27.2-12.8-27.2-33.6 0-48l368-176c27.2-12.8 72-12.8 99.2 0l368 176c3.2 1.6 4.8 3.2 8 6.4v-182.4l-25.6-25.6 32-32 32 32-24 24z" />
<glyph unicode="&#xe915;" glyph-name="hammer-thin" d="M364.474 458.494l-195.775 110.384 68.729 118.714 195.775-110.384zM756.024 356.439l-331.151 185.363-33.323-58.316 331.151-187.446zM797.678 333.529l-35.406-60.399 170.782-95.805 35.406 58.316zM751.858 273.13c-4.165-5.555-9.718-6.248-16.662-2.083-6.94 4.165-9.022 9.024-6.248 14.579l39.571 70.812c4.165 5.555 9.722 6.248 16.662 2.083 6.944-4.165 9.022-9.024 6.248-14.579l-39.571-70.812zM1003.866 235.642c-6.94 2.776-14.579 4.165-22.91 4.165l-43.737-77.060c4.165-6.942 9.722-11.801 16.662-14.579 9.722-5.555 19.786-6.942 30.199-4.165 10.414 2.778 18.399 8.331 23.951 16.662l10.414 20.827c5.557 9.72 6.944 19.786 4.165 30.199-2.776 10.414-9.024 18.397-18.744 23.951zM452.99 600.118c-6.248-11.107-14.927-13.19-26.034-6.248l-172.865 95.805c-11.107 6.948-13.538 15.972-7.289 27.075 6.248 11.107 14.927 13.19 26.034 6.248l172.865-95.805c11.107-6.942 13.538-15.968 7.289-27.075zM475.899 641.772c-6.248-11.107-14.927-13.19-26.034-6.248l-170.782 95.805c-11.107 6.948-13.538 15.972-7.289 27.075 6.248 11.107 14.927 13.19 26.034 6.248l170.782-95.805c11.107-6.942 13.538-15.968 7.289-27.075zM332.192 387.679c-6.248-11.107-15.62-13.19-28.117-6.248l-170.782 95.807c-11.107 6.942-13.538 15.968-7.289 27.075s14.927 13.19 26.034 6.248l172.865-95.807c11.107-6.944 13.538-15.968 7.289-27.075zM355.102 429.334c-6.248-11.107-14.927-13.19-26.034-6.248l-172.865 95.807c-9.72 6.946-11.455 15.972-5.207 27.075 6.248 11.107 14.927 13.19 26.034 6.248l170.782-95.805c11.107-6.944 13.538-15.972 7.289-27.077zM66.647 258.551h304.076v-35.406h-304.076v35.406zM435.286 185.657c-1.389 13.885-9.024 20.827-22.91 20.827h-387.384c-13.885 0-22.216-6.942-24.993-20.827v-58.316h437.369v58.316h-2.083z" />
<glyph unicode="&#xe916;" glyph-name="hands-hake" d="M1020.526 499.195c-5.008 5.605-13.598 6.025-19.162 1.031l-26.626-23.898-144.392 143.17c-5.32 5.265-13.896 5.252-19.189-0.081-5.279-5.32-5.252-13.91 0.081-19.189l143.279-142.057-70.934-63.66-235.912 238.952 234.501 221.839c5.442 5.157 5.686 13.747 0.529 19.189-5.17 5.455-13.747 5.659-19.189 0.543l-244.57-231.379c-2.646-2.511-4.18-5.971-4.248-9.622s1.357-7.165 3.908-9.771l21.727-22.012-47.864-50.076-92.321 9.839c-4.085 0.489-8.088-0.977-10.992-3.854l-37.523-37.197-69.753 68.898 23.504 23.803c2.551 2.592 3.976 6.12 3.908 9.771s-1.588 7.111-4.248 9.622l-244.557 231.366c-5.428 5.13-14.032 4.926-19.189-0.543-5.157-5.442-4.913-14.032 0.529-19.189l165.033-156.103-241.68-237.147-42.544 38.174c-5.564 4.994-14.154 4.546-19.162-1.031s-4.546-14.154 1.031-19.162l127.415-114.36c2.578-2.321 5.835-3.474 9.065-3.474 3.515 0 7.016 1.357 9.662 4.030l23.084 23.382 126.899-125.162-23.314-23.708c-5.225-5.32-5.198-13.842 0.081-19.107l47.579-47.579c0 0 0.027-0.014 0.027-0.027s0.014-0.027 0.027-0.027l47.592-47.049 95.103-95.117c2.646-2.646 6.12-3.976 9.594-3.976s6.948 1.33 9.594 3.976l24.617 24.617 25.024-24.685c2.633-2.606 6.080-3.908 9.527-3.908 3.474 0 6.948 1.33 9.594 3.976l37.984 37.984 5.605-5.605c2.646-2.646 6.12-3.976 9.594-3.976s6.948 1.33 9.594 3.976l37.984 37.984 5.605-5.605c2.646-2.646 6.12-3.976 9.594-3.976s6.948 1.33 9.594 3.976l37.984 37.984 5.591-5.591c2.646-2.646 6.12-3.976 9.594-3.976s6.948 1.33 9.594 3.976l47.579 47.579c5.306 5.306 5.306 13.883 0 19.189l-70.649 70.649 127.686 135.476 24.753-25.079c2.646-2.687 6.148-4.030 9.662-4.030 3.23 0 6.487 1.154 9.065 3.474l127.415 114.36c5.564 5.048 6.025 13.625 1.018 19.202zM334.177 491.636c0-32.746-26.639-59.372-59.372-59.372-13.028 0-25.54 4.288-35.745 11.996l83.12 83.134c7.708-10.219 11.996-22.731 11.996-35.759zM341.424 546.638l22.649 22.649 12.241-12.091-24.943-25.54c-2.768 5.306-6.093 10.327-9.947 14.982zM140.415 383.913l-55.002 49.37 241.177 236.645 49.75-47.063-235.926-238.952zM219.817 425.018c4.804-3.976 9.988-7.382 15.498-10.219-4.302-4.424-8.739-9.024-13.204-13.638-5.401-5.578-10.667-10.992-15.756-16.217l-13.394 13.204 26.856 26.87zM319.955 234.798l28.525-28.132-14.018-14.317-28.363 28.363 13.856 14.086zM382.095 145.137l-28.349 28.023 14.154 14.344 28.471-28.078-14.276-14.29zM415.696 140.36l28.58-28.186-14.561-14.561-28.39 28.39 14.371 14.358zM477.307 50.034l-28.39 28.39 14.697 14.697 28.58-28.2-14.887-14.887zM734.389 147.2l-60.376 60.376c0 0-0.014 0-0.014 0.014l-16.651 16.651c-5.306 5.306-13.883 5.306-19.189 0s-5.306-13.883 0-19.189l61.869-61.855-28.39-28.39-77.054 77.054c-5.306 5.306-13.883 5.306-19.189 0s-5.306-13.883 0-19.189l61.855-61.869-28.39-28.39-60.389 60.376c0 0-0.014 0-0.014 0.014l-16.651 16.651c-5.306 5.306-13.883 5.306-19.189 0s-5.306-13.883 0-19.189l61.855-61.855-28.458-28.458-320.335 315.938c5.143 5.279 10.477 10.775 15.918 16.407 7.993 8.251 15.864 16.38 22.867 23.491 3.42-0.407 6.853-0.665 10.341-0.665 47.714 0 86.513 38.812 86.513 86.513 0 3.569-0.271 7.097-0.706 10.599l35.026 35.881 36.736-36.274-128.107-127.035c-2.755-2.728-4.207-6.5-3.99-10.382s2.063-7.464 5.103-9.879c3.162-2.538 77.475-58.815 206.504 71.952l250.894-250.908-28.39-28.39zM701.711 275.022l-180.422 180.435c-2.592 2.592-5.808 4.030-9.812 3.976-3.678-0.054-7.152-1.601-9.676-4.275-83.242-88.576-139.004-91.263-164.15-85.454l166.023 164.639 65.098-6.935-9.771-10.232c-5.184-5.415-4.98-14.005 0.421-19.189 5.415-5.17 13.991-4.994 19.189 0.434l78.004 81.6 171.194-171.194-126.098-133.807zM725.446 664.621c0-23.382 19.026-42.408 42.408-42.408s42.408 19.026 42.408 42.408-19.026 42.408-42.408 42.408-42.408-19.026-42.408-42.408zM783.121 664.621c0-8.414-6.853-15.267-15.267-15.267s-15.267 6.853-15.267 15.267 6.853 15.267 15.267 15.267 15.267-6.853 15.267-15.267z" />
<glyph unicode="&#xe917;" glyph-name="now-hiring-sign" d="M500.429 445.141c-17.026 0-27.937-14.712-27.937-38.845 0-24.3 10.909-39.84 27.937-39.84 17.026 0 27.936 15.539 27.936 39.84-0.001 24.133-10.911 38.845-27.936 38.845zM417.841 249.446h-27.524v-63.038h27.524c26.338 0 40.84 11.246 40.84 33.149 0 22.191-14.501 29.888-40.84 29.888zM85.621-30.87h852.757c47.29 0 85.621 38.335 85.621 85.621v426.026c0 47.289-38.332 85.621-85.621 85.621h-86.261l-286.057 286.056c1.799 5.535 2.784 11.439 2.784 17.573 0 31.394-25.45 56.843-56.843 56.843s-56.843-25.45-56.843-56.843c0-6.135 0.984-12.037 2.784-17.573l-286.059-286.056h-86.261c-47.288 0-85.621-38.333-85.621-85.621v-426.026c0-47.287 38.334-85.621 85.621-85.621zM306.859 83.417h-34.33v193.551h34.33v-193.551zM350.001 459.853h19.67l33.723-60.831 11.075-22.978h0.661c-0.826 11.075-2.48 24.796-2.48 36.861v46.946h18.35v-108.108h-19.67l-33.723 60.832-11.075 22.979h-0.661c0.826-11.405 2.48-24.463 2.48-36.533v-47.278h-18.35v108.109zM461.642 83.417l-41.73 75.763h-29.596v-75.763h-34.329v193.551h65.404c40.25 0 71.028-14.205 71.028-57.415 0-29.595-15.389-47.351-38.474-55.342l46.168-80.795h-38.472zM452.822 406.296c0 34.879 19.506 55.543 47.608 55.543 28.266 0 47.772-20.664 47.772-55.543 0-35.044-19.507-56.533-47.772-56.533-28.103-0.001-47.608 21.488-47.608 56.533zM567.595 83.417h-34.33v193.551h34.33v-193.551zM603.25 351.747h-23.305l-21.49 108.107h19.67l9.423-54.549c1.818-11.572 3.636-23.142 5.289-34.546h0.661c2.313 11.404 4.628 23.141 7.108 34.546l13.224 54.549h16.696l13.223-54.549c2.479-11.24 4.794-22.978 7.275-34.546h0.66c1.652 11.571 3.47 23.141 5.123 34.546l9.424 54.549h18.349l-20.663-108.107h-23.804l-13.389 56.864c-1.818 8.43-3.472 16.697-4.794 24.961h-0.661c-1.488-8.268-3.14-16.53-4.959-24.961l-13.062-56.864zM761.741 83.417h-35.217l-60.374 108.91-19.829 41.138h-1.183c1.481-20.421 4.438-43.802 4.438-65.403v-84.643h-32.85v193.549h35.217l60.374-108.908 19.829-41.139h1.182c-1.479 19.826-4.437 44.394-4.437 65.997v84.048h32.85v-193.549zM950.854 255.955l-18.941-21.307c-9.766 9.471-20.42 15.982-38.472 15.982-34.33 0-57.416-26.637-57.416-70.14 0-44.096 20.421-70.732 59.191-70.732 10.949 0 21.605 2.96 27.818 8.581v41.73h-36.697v28.114h67.477v-85.233c-13.316-13.023-36.104-23.084-62.741-23.084-51.495 0-90.265 35.515-90.265 99.736 0 63.334 39.953 100.919 92.335 100.919 26.635-0.003 45.576-12.136 57.71-24.567zM476.521 825.631c9.727-7.782 22.054-12.446 35.478-12.446s25.754 4.664 35.478 12.446l259.232-259.232h-589.419l259.231 259.232zM76.311 276.968h34.33v-77.835h78.427v77.835h34.33v-193.551h-34.33v85.824h-78.427v-85.824h-34.33v193.551z" />
<glyph unicode="&#xe918;" glyph-name="home-outline" d="M1009.665 534.785l-468.626 366.601c-8.009 6.268-18.32 9.718-29.043 9.718-10.719 0-21.031-3.453-29.036-9.715l-468.626-366.604c-18.371-14.369-14.467-30.962-12.829-35.705 1.632-4.742 8.782-20.22 32.106-20.22h93.281v-451.564c0-23.381 19.019-42.4 42.4-42.4h219.464c23.378 0 42.4 19.019 42.4 42.4v202.090h161.685v-202.090c0-23.381 19.019-42.4 42.4-42.4h219.464c23.381 0 42.4 19.019 42.4 42.4v451.564h93.281c23.324 0 30.471 15.478 32.106 20.22s5.543 21.336-12.829 35.705zM888.627 529.741c-23.381 0-42.4-19.019-42.4-42.4v-451.564h-202.504v202.090c0 23.381-19.019 42.4-42.4 42.4h-178.645c-23.381 0-42.4-19.019-42.4-42.4v-202.090h-202.504v451.564c0 23.381-19.023 42.4-42.4 42.4h-44.91l421.535 329.763 421.535-329.763h-44.904z" />
<glyph unicode="&#xe919;" glyph-name="judge-outline" d="M923.714-40.351c0-13.059-10.59-23.649-23.649-23.649h-285.888c-13.059 0-23.649 10.59-23.649 23.649s10.59 23.649 23.649 23.649h285.888c13.059 0 23.649-10.588 23.649-23.649zM666.177 66.069c-13.061 0-23.649-10.59-23.649-23.649 0-13.061 10.59-23.649 23.649-23.649l181.894 0.002c13.061 0 23.649 10.588 23.649 23.649s-10.59 23.649-23.649 23.649h-181.894zM702.431 178.461l-187.373-140.198c-4.25-3.181-9.221-4.716-14.149-4.716-7.201 0-14.31 3.275-18.955 9.483-7.825 10.458-5.69 25.278 4.768 33.104l187.373 140.198-30.034 40.142c-3.758 5.023-5.366 11.333-4.472 17.54s4.217 11.806 9.237 15.563l73.347 54.88c10.458 7.825 25.278 5.69 33.104-4.768l89.069-119.039c7.825-10.458 5.69-25.278-4.768-33.104l-73.345-54.882c-5.021-3.758-11.33-5.371-17.538-4.472-6.21 0.894-11.808 4.217-15.566 9.237l-30.699 41.031zM696.098 265.875l60.735-81.17 35.476 26.546-60.735 81.168-35.476-26.544zM167.068 936.351c0 13.059 10.588 23.649 23.649 23.649h53.331c0.291 0 0.586 0 0.877 0h242.080c0.125 0 0.246 0 0.367 0h53.589c13.059 0 23.649-10.59 23.649-23.649s-10.588-23.649-23.649-23.649h-28.961v-100.458c16.554-24.68 25.122-53.482 26.326-85.753 3.282-87.735-29.999-158.599-90.299-194.423-25.345-15.057-53.766-22.587-82.183-22.589-28.426-0.002-56.828 7.53-82.18 22.589-54.028 32.099-85.881 92.335-89.563 167.626-0.045 0.539-0.033 1.078-0.040 1.625-0.355 8.22-0.305 16.618 0.012 25.177 1.206 32.262 10.493 61.066 27.047 85.751v100.456h-30.403c-13.061 0-23.649 10.588-23.649 23.649zM487.791 677.038c-47.515-8.622-96.646 4.749-134.075 36.944-8.090-6.962-16.833-13.13-26.186-18.444-25.598-14.544-54.336-21.677-83.228-20.981 7.932-45.988 29.963-81.896 63.507-101.825 35.797-21.265 80.265-21.265 116.062 0 34.14 20.284 56.358 57.126 63.921 104.306zM474.642 780.268h-72.9c-4.758-9.46-10.382-21.58-16.819-31.302 29.441-25.075 68.837-33.678 105.496-23.178-0.974 20.572-6.269 40.291-15.776 54.48zM268.416 827.566h116.41c0.364 0 0.735 0 1.1 0h78.777v86.158l-196.286-0.005v-86.153zM241.111 721.798c32.037-1.859 67.414 9.81 93.513 39.39 0.686 0.934 1.447 1.632 2.287 2.471 4.29 5.148 8.308 11.877 11.995 16.606h-91.874c-9.727-16.554-15.045-34.773-15.835-55.925-0.031-0.882-0.061-1.665-0.085-2.542zM475.304 381.057l-35.646-127.555c-2.852-10.219-12.167-17.16-22.776-17.16h-109.79c-10.611 0-19.924 6.92-22.779 17.141l-34.35 122.852c-23.408-18.427-40.856-44.067-47.043-77.455l-50.552-273.013h233.011c13.059 0 23.649-10.59 23.649-23.649s-10.59-23.649-23.649-23.649h-261.444c-7.026 0-13.688 3.249-18.181 8.651-4.491 5.401-6.352 12.643-5.073 19.553l55.729 300.976c19.591 105.746 119.302 153.259 209.426 153.259 0.005 0-0.002 0 0.005 0 89.897 0 189.345-47.395 208.884-152.886l5.96-32.335c2.379-12.841-6.104-25.179-18.948-27.56-12.832-2.355-25.179 6.101-27.56 18.948l-5.96 32.163c-6.683 36.084-26.567 63.105-52.912 81.721zM432.232 402.767c-21.381 7.256-44.242 10.661-66.392 10.661-24.585 0-50.044-4.233-73.402-13.175l32.6-116.613h73.891l33.302 119.127z" />
<glyph unicode="&#xe91a;" glyph-name="justice-hammer" d="M655.342 471.828l-590.813-176.511c-4.68-1.397-9.51-2.106-14.369-2.106-21.994 0-41.751 14.725-48.054 35.81-7.916 26.501 7.203 54.507 33.709 62.423l590.809 176.516-30.754 102.936 268.939 80.347 90.228-302.005-268.939-80.351-30.754 102.941zM715.814 286.941c2.945-9.862 12.179-16.747 22.449-16.747 2.256 0 4.521 0.333 6.73 0.99l214.399 64.055c6.003 1.796 10.95 5.82 13.928 11.33 2.973 5.51 3.625 11.846 1.834 17.849l-11.485 38.45-259.334-77.477 11.48-38.45zM837.298 825.826c-2.945 9.862-12.179 16.747-22.444 16.747-2.26 0-4.525-0.333-6.734-0.99l-214.394-64.055c-6.003-1.791-10.95-5.815-13.928-11.325-2.973-5.51-3.625-11.851-1.834-17.849l9.285-31.083 259.334 77.477-9.285 31.078zM1000.552 100.323h-24.212v25.793c0 12.948-10.495 23.448-23.448 23.448h-346.969c-12.953 0-23.448-10.5-23.448-23.448v-25.793h-24.212c-12.953 0-23.448-10.5-23.448-23.448s10.495-23.448 23.448-23.448h442.289c12.953 0 23.448 10.5 23.448 23.448s-10.5 23.448-23.448 23.448z" />
<glyph unicode="&#xe91b;" glyph-name="law-pillar" d="M883.138 108.262v40.907c0 40.066-32.467 72.533-72.565 72.533h-1.649v238.942c-48.183 3.137-97.465 22.636-133.845 58.046-64.028 62.347-64.416 125.599-59.533 157.969 2.749 17.85 8.181 33.922 15.328 48.248 4.495 9.055 3.978 19.791-1.326 28.392-5.368 8.602-14.714 13.808-24.9 13.808h-185.52c-10.089 0-19.5-5.206-24.803-13.808s-5.821-19.338-1.358-28.392c7.114-14.326 12.579-30.397 15.296-48.248 4.948-32.37 2.813-95.622-61.215-157.969-35.442-34.504-79.744-53.907-131.678-57.787v-239.233h-5.142c-36.089 0-65.354-29.233-65.354-65.354v-49.573h-21.893c-43.203 0-78.224-35.022-78.224-78.224v-66.551h938.597v80.553c0 35.41-28.78 64.125-64.093 64.125h-36.056l-0.065 1.617zM630.905 435.615c0 28.554 23.38 51.675 51.902 51.675s51.934-23.121 51.934-51.675v-213.913h-103.9l0.065 213.913zM460.228 435.615c0 28.554 23.38 51.675 51.934 51.675s51.966-23.121 51.966-51.675v-213.913h-103.9v213.913zM289.583 435.615c0 28.554 21.537 51.675 50.091 51.675s50.091-23.121 50.091-51.675v-213.913h-100.182v213.913zM971.322 854.127c-49.218 52.775-129.318 79.906-237.939 79.906h-442.765c-108.622 0-188.689-27.131-237.939-79.906-38.417-41.101-56.397-96.43-52.031-159.586 5.336-77.578 58.078-145.325 134.33-172.359 21.86-7.793 43.914-11.642 65.095-11.642 44.076 0.032 84.692 16.33 113.666 47.407 33.89 36.283 38.352 73.374 36.153 98.015-5.918 65.322-63.802 110.109-70.366 114.992-22.83 16.977-54.844 12.224-71.951-10.445s-12.579-54.974 9.992-72.274c11.156-8.569 28.231-27.746 29.395-41.715 0.194-2.199 0.647-7.987-8.828-18.109-17.204-18.432-46.728-16.686-68.653-8.957-28.425 10.089-62.735 37.641-65.775 82.008-2.328 34.342 5.918 61.926 24.48 81.911 28.522 30.559 84.692 46.792 162.399 46.792h442.733c77.642 0 133.845-16.233 162.367-46.792 18.497-19.985 26.84-47.504 24.48-81.846-3.201-45.046-38.255-72.792-67.327-82.849-21.537-7.438-50.317-8.893-66.551 9.087-10.089 11.221-9.54 17.592-9.184 19.985 1.326 13.711 17.883 32.014 28.651 40.099 22.927 16.718 28.037 48.894 11.415 71.919-16.718 23.121-48.991 28.295-72.080 11.642-6.5-4.721-63.737-47.795-70.657-112.599-2.652-24.932 1.261-62.605 35.248-100.246 28.619-31.755 69.396-48.506 113.86-48.506 20.599 0 41.877 3.557 63.188 10.93 77.61 26.808 131.29 94.846 136.658 173.394 4.333 63.155-13.711 118.646-52.063 159.747z" />
<glyph unicode="&#xe91c;" glyph-name="paper-hamer-document" d="M558.465 683.735c9.064-8.935 9.064-23.638 0-32.702l-143.128-142.973c-8.974-9.064-23.702-9.064-32.573-0.27-9.102 9.373-9.038 23.895-0.129 32.972l143.205 142.96c9.025 9.077 23.561 9.077 32.624 0.013zM626.469 264.266c9.064-9.064 23.728-9.064 32.663-0.142l143.128 143.205c9.128 9.064 9.064 23.741 0 32.727-8.935 8.974-23.664 8.974-32.74 0l-143.050-143.050c-9.077-9.141-9.077-23.805 0-32.74zM969.54 678.869v-683.478h-742.972v11.008l-65.867-70.412-106.242 106.422 172.096 160.933v756.657h472.307l270.677-281.131zM711.467 701.734h127.537l-127.537 132.403v-132.403zM891.391 643.103h-238.529v238.658h-348.131v-605.226l174.696 163.392-52.439 52.361 147.067 147.209 183.876-184.005-146.939-147.029-52.67 52.735-253.592-271.141v-16.467h586.66v569.511z" />
<glyph unicode="&#xe91d;" glyph-name="light-bulb" d="M684.642 426.011c55.29 55.292 118.755 131.906 118.755 234.442 0.002 160.678-130.719 291.399-291.397 291.399s-291.397-130.721-291.397-291.401c0-102.534 63.465-179.152 118.757-234.442 25.767-25.767 25.903-73.256 25.234-109.595h-4.959c-11.542 0-20.898-9.356-20.898-20.898v-256.74c0-11.54 9.356-20.898 20.898-20.898h27.794v-52.83c0-11.542 9.358-20.898 20.898-20.898h207.347c11.54 0 20.898 9.356 20.898 20.898v52.83h27.796c11.54 0 20.898 9.358 20.898 20.898v256.74c0 11.542-9.358 20.898-20.898 20.898h-4.961c-0.669 36.344-0.533 83.828 25.234 109.597zM594.775-14.056h-165.552v31.932h165.552v-31.932zM380.533 59.674v45.066h197.356c11.54 0 20.898 9.356 20.898 20.898 0 11.544-9.358 20.898-20.898 20.898h-197.356v128.082h262.936v-45.066h-187.503c-11.542 0-20.898-9.358-20.898-20.898 0-11.542 9.356-20.898 20.898-20.898h187.503v-128.082h-262.936zM551.539 316.414l75.519 231.946c2.575 7.908 0.215 16.591-6.012 22.11-6.223 5.515-15.13 6.813-22.674 3.306l-35.052-16.302-31.78 50.634c-3.877 6.177-10.668 9.914-17.987 9.787-7.293-0.1-14.008-3.998-17.713-10.28l-29.838-50.592-41.167 17.107c-7.58 3.147-16.296 1.572-22.288-4.033-5.994-5.603-8.154-14.192-5.528-21.966l78.411-231.717h-69.034c0.746 41.727 0.303 101.361-37.485 139.151-52.671 52.669-106.517 118.201-106.517 204.886 0 137.632 111.971 249.603 249.601 249.603s249.603-111.971 249.603-249.603c0-86.685-53.844-152.217-106.515-204.886-37.786-37.788-38.231-97.424-37.487-139.151h-66.058zM513.454 334.451l-62.056 183.38 15.354-6.38c9.63-3.998 20.725-0.295 26.018 8.683l21.627 36.668 23.322-37.159c5.599-8.919 16.959-12.278 26.515-7.841l8.211 3.82-58.991-181.171zM1003.102 721.304h-91.656c-11.54 0-20.898-9.356-20.898-20.898s9.358-20.898 20.898-20.898h91.656c11.54 0 20.898 9.356 20.898 20.898 0 11.544-9.358 20.898-20.898 20.898zM885.424 766.679c4.322 0 8.683 1.337 12.422 4.106l56.243 41.666c9.277 6.869 11.224 19.958 4.353 29.232s-19.962 11.222-29.23 4.351l-56.245-41.662c-9.275-6.871-11.224-19.96-4.353-29.232 4.1-5.534 10.413-8.462 16.81-8.462zM954.088 588.365l-56.243 41.662c-9.277 6.869-22.363 4.919-29.23-4.351-6.871-9.277-4.921-22.363 4.353-29.232l56.243-41.666c3.741-2.769 8.1-4.106 12.422-4.106 6.397 0 12.71 2.926 16.808 8.462 6.871 9.272 4.921 22.361-4.353 29.232zM133.452 700.406c0 11.542-9.358 20.898-20.898 20.898h-91.656c-11.542 0-20.898-9.356-20.898-20.898s9.356-20.898 20.898-20.898h91.656c11.542 0 20.898 9.358 20.898 20.898zM151.034 804.373l-56.245 41.662c-9.275 6.869-22.361 4.919-29.23-4.353-6.871-9.275-4.921-22.361 4.353-29.23l56.245-41.666c3.741-2.769 8.1-4.106 12.422-4.106 6.397 0 12.71 2.926 16.808 8.462 6.873 9.272 4.924 22.361-4.353 29.232zM126.157 630.027l-56.245-41.662c-9.277-6.871-11.224-19.96-4.353-29.232 4.098-5.534 10.411-8.462 16.808-8.462 4.322 0 8.683 1.337 12.422 4.106l56.245 41.666c9.275 6.869 11.224 19.958 4.353 29.23-6.867 9.275-19.958 11.224-29.23 4.353z" />
<glyph unicode="&#xe91e;" glyph-name="litigation" d="M512 179.2c-201.6 0-366.4 164.8-366.4 366.4s164.8 366.4 366.4 366.4 366.4-164.8 366.4-366.4c0-201.6-164.8-366.4-366.4-366.4zM512 896c-193.6 0-350.4-156.8-350.4-350.4s156.8-350.4 350.4-350.4 350.4 156.8 350.4 350.4c0 193.6-156.8 350.4-350.4 350.4zM545.6 17.6l-33.6 57.6-33.6-57.6h-412.8v-43.2h892.8v43.2zM488 700.8l91.2-52.8c3.2-1.6 6.4 0 8 1.6l3.2 4.8c1.6 3.2 0 6.4-1.6 8l-92.8 51.2c-3.2 1.6-6.4 0-8-1.6l-3.2-4.8c0-1.6 0-4.8 3.2-6.4v0zM408 563.2l91.2-52.8c3.2-1.6 6.4 0 8 1.6l3.2 4.8c1.6 3.2 0 6.4-1.6 8l-92.8 51.2c-3.2 1.6-6.4 0-8-1.6l-3.2-4.8c0-1.6 1.6-4.8 3.2-6.4v0zM732.8 497.6l-184 96 24 43.2c1.6 3.2 0 6.4-1.6 8l-83.2 48c-3.2 1.6-6.4 0-8-1.6l-57.6-100.8c-1.6-3.2 0-6.4 1.6-8l83.2-48c3.2-1.6 6.4 0 8 1.6l24 43.2 174.4-112c3.2-1.6 6.4 0 6.4 1.6l12.8 22.4c3.2 1.6 1.6 4.8 0 6.4v0zM761.6 484.8l-9.6 4.8c-3.2 1.6-6.4 0-8-1.6l-16-27.2c-1.6-3.2 0-6.4 1.6-8l9.6-4.8c3.2-1.6 6.4 0 8 1.6l16 27.2c1.6 3.2 0 6.4-1.6 8v0zM563.2 451.2h-11.2c1.6 1.6 1.6 3.2 1.6 6.4v8c0 4.8-3.2 8-8 8h-176c-4.8 0-8-3.2-8-8v-8c0-1.6 1.6-4.8 1.6-6.4h-11.2c-4.8 0-8-3.2-8-8v-35.2c0-4.8 3.2-8 8-8h209.6c4.8 0 8 3.2 8 8v35.2c1.6 4.8-1.6 8-6.4 8v0zM550.4 411.2h-184c-4.8 0-9.6 4.8-9.6 9.6v9.6c0 4.8 4.8 9.6 9.6 9.6h184c4.8 0 9.6-4.8 9.6-9.6v-9.6c0-4.8-4.8-9.6-9.6-9.6v0zM817.6 694.4l33.6 12.8c-59.2 126.4-188.8 214.4-339.2 214.4v-35.2c134.4 0 251.2-78.4 305.6-192z" />
<glyph unicode="&#xe91f;" glyph-name="magistrate" d="M192.206 364.575h632.506v-428.575h-632.506v428.575zM884.529 446.153c22.868 151.355-99.103 226.416-145.105 254.627-1.922 1.182-3.978 2.030-5.992 2.888-12.874 8.596-27.328 14.921-42.091 18.541l-28.776-28.976-27.911 29.301c-0.1-0.025-0.191-0.025-0.283-0.050-15.029-3.603-29.767-10.044-42.848-18.815-3.52-1.498-6.957-3.295-10.111-5.767-95.4-74.546-137.84-34.552-142.892-31.032-16.702 11.817-38.604 10.402-53.816-1.781l-71.616 67.431 14.33 17.168c6 7.19 8.871 15.944 8.838 24.632l-44.746 37.339c-8.563-1.515-16.652-5.917-22.66-13.107l-41.558-49.83c-5.692-6.807-8.563-15.004-8.821-23.226l46.102-38.463c8.039 1.731 15.587 6.017 21.262 12.815l15.037 18.025 71.184-67.431 1.232 0.874c-10.56-19.672-5.226-44.513 13.464-57.728 4.985-3.528 99.186-54.174 157.554-10.71v-136.717h-233.157c7.623 0 13.806 6.183 13.806 13.814s-6.183 13.822-13.806 13.822h-1.082c0 13.573-11.018 24.582-24.582 24.582h-101.366c-13.573 0-24.582-11.010-24.582-24.582h-1.082c-7.631 0-13.806-6.191-13.806-13.822s6.175-13.814 13.806-13.814h-49.988v-50.196h807.070v50.196l-31.007-0.008zM662.306 688.929h0.533l27.878-186.273-27.878-38.138h-0.533l-27.869 38.138 27.869 186.273zM780.849 544.581c14.987-26.113 21.162-57.994 12.308-98.437h-12.308v98.437zM778.136 844.453c0-63.815-51.732-115.547-115.547-115.547s-115.547 51.732-115.547 115.547c0 63.815 51.732 115.547 115.547 115.547s115.547-51.732 115.547-115.547z" />
<glyph unicode="&#xe920;" glyph-name="manager-tree" d="M567.243 676.958c40.488 27.23 68.412 80.981 68.412 129.355 0 68.305-55.377 123.638-123.609 123.638-68.261 0-123.643-55.328-123.643-123.638 0-48.374 27.899-102.125 68.412-129.355-96.85-24.57-168.629-108.628-168.629-170.934 0-73.643 447.73-73.643 447.73 0-0.058 62.307-71.804 146.359-168.673 170.934zM512.012 450.793l-62.729 62.705 52.805 127.598h-0.544l-20.508 23.522c9.929-3.577 20.271-5.688 30.981-5.688 10.73 0 21.013 2.116 30.942 5.688l-20.508-23.522h-0.534l52.78-127.598-62.685-62.705zM403.050 160.763c13.137 0 23.784 15.185 23.784 28.307 0 13.151-10.681 23.76-23.784 23.76-13.108 0-23.76-10.608-23.76-23.76 0-13.122 10.657-28.307 23.76-28.307zM449.56 144.21c-0.146 0.709-0.34 1.354-0.636 2.009-0.281 0.476-0.607 0.825-0.912 1.242-0.446 0.587-0.81 1.116-1.359 1.621-0.412 0.359-0.874 0.563-1.388 0.864-0.461 0.296-0.874 0.645-1.388 0.883-0.81 0.301-19.756 7.032-37.159 7.925l-2.363-4.756h-0.058l6.323-49.257-7.537-13.122-7.507 13.122 6.357 49.257h-0.092l-2.392 4.756c-17.359-0.893-36.276-7.624-37.115-7.925-0.548-0.238-0.975-0.587-1.432-0.883-0.471-0.301-0.961-0.505-1.359-0.864-0.548-0.505-0.932-1.063-1.359-1.621-0.34-0.417-0.636-0.738-0.874-1.184-0.34-0.65-0.49-1.354-0.636-2.038-0.131-0.412-0.398-0.796-0.427-1.213l-7.624-67.664c-0.548-5.149 3.145-9.808 8.289-10.405 0.369-0.034 0.694-0.034 1.092-0.034 4.712 0 8.779 3.577 9.308 8.337l6.843 61.613c0.801 0.233 1.669 0.505 2.572 0.767v-64.126l-7.459-92.963c-0.49-6.173 4.135-11.589 10.342-12.118 0.325-0.029 0.607-0.029 0.932-0.029 5.824 0 10.74 4.465 11.201 10.371l6.78 84.014c1.393-0.626 2.912-1.005 4.537-1.005 1.669 0 3.145 0.379 4.562 1.005l6.78-84.014c0.461-5.906 5.392-10.371 11.201-10.371 0.325 0 0.607 0 0.932 0.029 6.202 0.529 10.817 5.969 10.356 12.118l-7.503 92.963v64.126c0.961-0.267 1.844-0.534 2.63-0.767l6.872-61.613c0.514-4.785 4.596-8.337 9.293-8.337 0.325 0 0.723 0 1.048 0.034 5.188 0.592 8.866 5.256 8.303 10.405l-7.537 67.611c-0.034 0.471-0.315 0.825-0.437 1.237zM512.012 160.763c13.093 0 23.731 15.185 23.731 28.307 0 13.151-10.633 23.76-23.731 23.76-13.132 0-23.784-10.608-23.784-23.76 0-13.122 10.681-28.307 23.784-28.307zM558.527 144.21c-0.146 0.709-0.325 1.354-0.621 2.009-0.296 0.476-0.592 0.825-0.946 1.242-0.412 0.587-0.796 1.116-1.354 1.621-0.417 0.359-0.893 0.563-1.359 0.864-0.505 0.296-0.859 0.645-1.422 0.883-0.825 0.301-19.737 7.032-37.11 7.925l-2.392-4.756h-0.092l6.323-49.257-7.537-13.185-7.537 13.151 6.357 49.262h-0.116l-2.329 4.785c-17.393-0.917-36.305-7.624-37.164-7.983-0.548-0.209-0.961-0.558-1.388-0.888-0.485-0.238-0.99-0.476-1.359-0.83-0.577-0.476-1.005-1.063-1.388-1.592-0.311-0.417-0.636-0.767-0.917-1.242-0.296-0.621-0.442-1.359-0.665-2.009-0.058-0.417-0.325-0.767-0.383-1.213l-7.537-67.64c-0.544-5.149 3.145-9.808 8.318-10.405 0.354-0.034 0.699-0.034 1.068-0.034 4.712 0 8.793 3.577 9.308 8.337l6.872 61.613c0.752 0.233 1.669 0.505 2.543 0.767v-64.126l-7.478-92.963c-0.471-6.173 4.125-11.589 10.39-12.118 0.296-0.029 0.607-0.029 0.903-0.029 5.824 0 10.715 4.465 11.201 10.371l6.78 84.014c1.388-0.626 2.897-1.005 4.567-1.005 1.64 0 3.135 0.379 4.552 1.005l6.77-84.014c0.505-5.906 5.406-10.371 11.201-10.371 0.325 0 0.592 0 0.946 0.029 6.202 0.529 10.817 5.969 10.342 12.118l-7.478 92.963v64.126c0.917-0.267 1.805-0.534 2.572-0.767l6.852-61.613c0.534-4.785 4.61-8.337 9.313-8.337 0.32 0 0.679 0 1.092 0.034 5.144 0.592 8.803 5.256 8.245 10.405l-7.537 67.611c-0.044 0.476-0.311 0.83-0.403 1.242zM620.97 160.763c13.117 0 23.76 15.185 23.76 28.307 0 13.151-10.638 23.76-23.76 23.76-13.151 0-23.76-10.608-23.76-23.76 0-13.122 10.638-28.307 23.76-28.307zM667.48 144.21c-0.175 0.709-0.349 1.354-0.65 2.009-0.238 0.476-0.592 0.825-0.888 1.242-0.476 0.587-0.825 1.116-1.359 1.621-0.412 0.359-0.888 0.563-1.359 0.864-0.471 0.296-0.888 0.645-1.388 0.883-0.888 0.301-19.766 7.032-37.202 7.925l-2.363-4.756h-0.116l6.328-49.257-7.507-13.122-7.507 13.122 6.328 49.257h-0.063l-2.422 4.756c-17.378-0.893-36.198-7.624-37.115-7.925-0.529-0.238-0.941-0.587-1.388-0.883-0.505-0.301-0.975-0.505-1.359-0.864-0.558-0.505-0.971-1.063-1.388-1.621-0.296-0.417-0.65-0.738-0.888-1.184-0.32-0.65-0.471-1.354-0.709-2.038-0.063-0.412-0.301-0.796-0.383-1.213l-7.478-67.611c-0.558-5.144 3.135-9.866 8.274-10.429 0.354-0.029 0.709-0.029 1.063-0.029 4.732 0 8.75 3.572 9.313 8.332l6.823 61.642c0.796 0.209 1.718 0.476 2.659 0.767v-64.122l-7.507-92.967c-0.471-6.202 4.14-11.642 10.376-12.147 0.296-0.029 0.558-0.029 0.912-0.029 5.79 0 10.73 4.436 11.23 10.405l6.736 83.985c1.388-0.655 2.931-1.005 4.552-1.005 1.66 0 3.164 0.349 4.581 1.005l6.77-83.985c0.476-5.911 5.377-10.405 11.225-10.405 0.301 0 0.563 0 0.888 0.029 6.236 0.563 10.817 5.969 10.405 12.147l-7.507 92.967v64.122c0.917-0.296 1.771-0.558 2.601-0.767l6.794-61.642c0.592-4.785 4.61-8.332 9.342-8.332 0.349 0 0.709 0 1.063 0.029 5.144 0.563 8.832 5.227 8.274 10.429l-7.507 67.611c-0.126 0.417-0.364 0.772-0.48 1.184zM1000.512 86.023c0.476 13.268-1.742 26.715-6.678 39.537l20.567 12.797-20.154 32.243-20.533-12.826c-9.424 10.075-20.479 17.902-32.597 23.318l5.435 23.551-37.086 8.541-5.406-23.58c-13.239 0.534-26.715-1.684-39.537-6.648l-12.88 20.567-32.151-20.12 12.826-20.538c-10.075-9.366-17.936-20.479-23.347-32.626l-23.556 5.469-8.57-37.028 23.556-5.464c-0.476-13.268 1.713-26.652 6.707-39.537l-20.596-12.826 20.154-32.214 20.562 12.851c9.342-10.133 20.45-17.932 32.597-23.343l-5.406-23.556 36.994-8.541 5.44 23.556c13.239-0.534 26.71 1.684 39.537 6.678l12.826-20.567 32.209 20.149-12.826 20.567c10.075 9.342 17.966 20.513 23.284 32.626l23.58-5.469 8.541 37.033-23.493 5.401zM936.618 31.743c-31.971-19.941-74.022-10.22-94.025 21.722-19.916 31.947-10.225 74.056 21.688 94.001 31.918 19.975 74.085 10.283 94.059-21.693s10.201-74.114-21.722-94.030zM123.58 213.208c-68.145 0-123.58-55.435-123.58-123.546 0-68.179 55.435-123.614 123.58-123.614s123.58 55.435 123.58 123.614c0.029 68.111-55.44 123.546-123.58 123.546zM176.506 3.49l-4.819 8.337-4.77-2.747 4.746-8.245c-13.622-7.444-28.87-11.967-45.273-12.414v9.783h-5.571v-9.783c-16.398 0.446-31.738 4.965-45.287 12.414l4.77 8.245-4.804 2.747-4.814-8.391c-13.564 8.332-24.91 19.683-33.228 33.213l8.391 4.848-2.79 4.785-8.26-4.732c-7.415 13.593-11.953 28.841-12.409 45.273h9.837v5.557h-9.837c0.485 16.403 5.023 31.709 12.409 45.331l8.231-4.785 2.776 4.814-8.347 4.848c8.318 13.501 19.606 24.852 33.17 33.184l4.872-8.391 4.77 2.776-4.741 8.245c13.578 7.415 28.885 11.967 45.287 12.414v-9.808h2.276l-15.039-30.049h10.016v-58.157l-31.19-17.966-5.023 8.687-19.13-28.986 34.679 2.038-5.052 8.687 33.98 19.62c0.18 0.116 0.218 0.476 0.456 0.592 0.607 0.476 0.844 1.005 1.271 1.655 0.369 0.621 0.665 1.121 0.752 1.864 0.029 0.267 0.281 0.446 0.281 0.709v61.317h10.002l-14.996 30.025h2.203l0.029 9.808c16.398-0.476 31.675-4.994 45.297-12.414l-4.814-8.274 4.848-2.718 4.814 8.362c13.52-8.303 24.866-19.649 33.184-33.184l-8.347-4.877 2.79-4.785 8.231 4.785c7.401-13.622 11.953-28.899 12.428-45.297h-9.798v-5.561h9.798c-0.471-16.432-5.023-31.738-12.428-45.331l-8.231 4.785-2.761-4.843 8.347-4.814c-8.318-13.54-19.669-24.857-33.184-33.194zM520.204 379.935v29.991h-16.388v-29.991h-388.408v-130.704h16.34v114.359h372.068v-114.359h16.388v114.359h372.093v-114.359h16.311v130.704z" />
<glyph unicode="&#xe921;" glyph-name="meeting" d="M512.136 620.348c36.654 0 66.424 42.514 66.424 79.178 0 36.68-29.77 66.445-66.424 66.445-36.67 0-66.403-29.739-66.403-66.445 0-36.67 29.739-79.178 66.403-79.178zM433.276 494.671l0.052 53.884c1.708 0.501 3.463 1.024 5.301 1.556v-55.446h56.417l13.825 107.559h-0.23l-6.22 12.53c-48.698-2.397-101.819-21.466-104.248-22.364-0.256-0.057-0.339-0.272-0.585-0.329-1.865-0.757-3.411-1.959-5.061-3.102-1.196-0.81-2.57-1.4-3.572-2.397-1.222-1.201-2.016-2.716-3.040-4.157-0.898-1.347-2.047-2.517-2.69-4.006-0.611-1.374-0.731-2.93-1.139-4.392-0.475-1.838-1.092-3.656-1.118-5.583 0-0.245-0.146-0.444-0.146-0.684l-0.131-73.856c2.512 0.418 5.024 0.789 7.625 0.789h44.958zM597.414 588.181l5.003 1.985 4.481 8.461c-20.291 6.058-53.456 14.577-85.038 16.133l-6.21-12.53h-0.172l13.778-107.543h22.505l20.855 39.297-1.144 5.244c-4.523 20.63 6.408 41.198 25.942 48.954zM860.687 649.816c39.307 0 71.177 45.569 71.177 84.808 0 39.271-31.87 71.145-71.177 71.145-39.239 0-71.093-31.838-71.093-71.145 0-39.244 31.859-84.808 71.093-84.808zM995.901 470.651c-1.405 0-2.601-0.585-3.917-0.789l2.34 2.596c4.633 5.192 7.213 11.898 7.213 18.854l-0.24 102.169c0 0.256-0.141 0.454-0.141 0.7-0.057 2.073-0.71 4.001-1.196 5.996-0.418 1.577-0.543 3.217-1.222 4.706-0.679 1.609-1.891 2.867-2.893 4.304-1.055 1.525-1.912 3.17-3.228 4.455-1.086 1.050-2.533 1.692-3.823 2.549-1.776 1.233-3.39 2.512-5.437 3.301-0.225 0.089-0.366 0.298-0.611 0.355-2.585 0.93-59.478 21.361-111.643 23.936l-6.675-13.402h-0.214l18.948-147.529-22.542-39.302-22.484 39.302 18.875 147.529h-0.167l-6.659 13.376c-50.327-2.46-104.885-21.482-111.058-23.68l-111.367-37.14 6.706 12.561c1.431 2.742 0.433 6.142-2.34 7.573-2.685 1.473-6.116 0.444-7.631-2.314l-12.201-22.986-8.122-2.705c-14.749-4.915-22.698-20.834-17.773-35.578 0.684-1.985 1.781-3.63 2.799-5.359l-20.792-39.291c-1.442-2.763-0.439-6.147 2.329-7.615 0.836-0.428 1.713-0.648 2.643-0.648 1.959 0 3.933 1.086 4.956 2.987l18.99 35.766c4.617-3.181 10.164-4.998 15.877-4.998 2.972 0 5.949 0.46 8.921 1.431l134.979 45.010c0.125 0.031 0.198 0.146 0.298 0.204 0.193 0.026 0.251 0 0.36 0.026 0.298 0.089 9.944 3.515 24.25 7.589v-183.833l-73.506-14.744c-15.073-3.066-26.234-15.893-27.044-31.264l-11.95-218.863c-1.024-18.63 13.261-34.549 31.896-35.552 0.595-0.031 1.196-0.057 1.828-0.057 17.779 0 32.705 13.95 33.661 31.891l10.534 192.796 28.851 5.829v-196.739c0-15.554 12.603-28.125 28.156-28.125h191.459c15.48 0 28.115 12.608 28.115 28.125v318.499c0.010 15.507-12.592 28.099-28.109 28.099zM939.458 574.575c1.943-0.585 3.828-1.139 5.63-1.671l0.12-70.879-5.756-6.44v78.99zM967.787 152.131h-135.219v149.044l135.219 31.776v-180.82zM967.787 442.526v-51.784l-28.334-6.654v27.347l28.433 31.609c0.005-0.178-0.099-0.319-0.099-0.517zM163.36 649.816c39.239 0 71.114 45.569 71.114 84.808 0 39.271-31.875 71.145-71.114 71.145-39.297 0-71.156-31.838-71.156-71.145 0-39.244 31.859-84.808 71.156-84.808zM315.569 375.998l-73.485 14.744v183.833c2-0.585 3.865-1.112 5.609-1.64v-114.49c0-10.66 6.038-20.374 15.548-25.179l45.016-22.49c4.032-1.974 8.33-3.003 12.545-3.003 10.331 0 20.265 5.688 25.185 15.606 6.925 13.893 1.337 30.752-12.624 37.74l-29.41 14.692v117.629c0 0.272-0.157 0.47-0.157 0.773-0.052 2.068-0.726 4.027-1.222 6.027-0.402 1.546-0.548 3.186-1.159 4.643-0.721 1.645-1.969 2.961-2.961 4.387-1.060 1.499-1.901 3.113-3.228 4.366-1.097 1.086-2.538 1.718-3.881 2.632-1.729 1.17-3.337 2.46-5.359 3.243-0.198 0.099-0.376 0.303-0.611 0.355-2.575 0.93-59.488 21.356-111.675 23.936l-6.675-13.402h-0.178l18.912-147.529-22.51-39.291-22.531 39.291 18.933 147.529h-0.209l-6.696 13.402c-52.16-2.575-109.079-22.991-111.617-23.936-0.277-0.057-0.392-0.256-0.622-0.355-2.026-0.783-3.682-2.1-5.442-3.301-1.295-0.883-2.763-1.489-3.844-2.538-1.316-1.29-2.157-2.935-3.217-4.46-0.987-1.426-2.194-2.685-2.904-4.304-0.669-1.457-0.789-3.102-1.227-4.701-0.486-2-1.123-3.901-1.196-6.001 0-0.24-0.146-0.47-0.146-0.7l-0.031-102.195c-0.026-6.957 2.544-13.663 7.202-18.854l2.345-2.596c-1.306 0.204-2.512 0.789-3.928 0.789-15.501 0-28.12-12.618-28.12-28.125v-318.52c0-15.548 12.618-28.156 28.12-28.156h191.454c15.548 0 28.12 12.634 28.12 28.156v196.739l28.893-5.797 10.503-192.796c1.003-18.008 15.898-31.917 33.687-31.917 0.611 0 1.222 0 1.844 0.052 18.614 1.029 32.893 16.922 31.88 35.531l-11.95 218.853c-0.757 15.433-11.919 28.261-26.981 31.327zM78.938 572.904c1.807 0.533 3.682 1.086 5.646 1.671v-78.99l-5.776 6.44 0.131 70.879zM84.605 411.435v-27.347l-28.334 6.654v51.784c0 0.167-0.11 0.339-0.11 0.517l28.444-31.609zM191.48 152.131h-135.209v180.82l135.204-31.776v-149.044zM635.828 480.037h-247.51c-18.63 0-33.734-15.089-33.734-33.734 0-18.63 15.136-33.724 33.734-33.724h6.267v-288.536c0-15.554 12.582-28.125 28.13-28.125h178.773c15.512 0 28.115 12.608 28.115 28.125v288.536h6.226c18.646 0 33.724 15.094 33.724 33.724 0.042 18.646-15.078 33.734-33.724 33.734z" />
<glyph unicode="&#xe922;" glyph-name="mission" d="M313.6 492.8c-49.6 0-89.6 40-89.6 89.6s40 89.6 89.6 89.6c49.6 0 89.6-40 89.6-89.6s-40-89.6-89.6-89.6v0zM313.6 635.2c-28.8 0-52.8-24-52.8-52.8s24-52.8 52.8-52.8c28.8 0 52.8 24 52.8 52.8 1.6 28.8-22.4 52.8-52.8 52.8v0zM928 243.2h-24v510.4c0 9.6-8 17.6-17.6 17.6h-748.8c-9.6 0-17.6-8-17.6-17.6v-510.4h-24c-9.6 0-17.6-8-17.6-17.6v-51.2c0-9.6 8-17.6 17.6-17.6h88v-19.2c0-9.6 8-17.6 17.6-17.6h217.6c9.6 0 17.6 8 17.6 17.6v19.2h491.2c9.6 0 17.6 8 17.6 17.6v51.2c0 9.6-8 17.6-17.6 17.6v0zM184 192h-70.4v16h70.4v-16zM184 432v-188.8h-28.8v492.8h713.6v-491.2h-430.4v91.2l68.8-60.8c6.4-4.8 11.2-4.8 12.8-4.8 4.8 0 9.6 1.6 12.8 6.4l142.4 152c8 8 12.8 19.2 11.2 32 0 9.6-4.8 19.2-9.6 25.6l104 112c6.4 6.4 6.4 19.2-1.6 25.6-6.4 6.4-19.2 6.4-25.6-1.6l-104-112c-8 4.8-16 8-25.6 8-11.2 0-22.4-4.8-30.4-14.4l-78.4-83.2c0 0-59.2 56-60.8 56-9.6 8-22.4 12.8-35.2 12.8h-176c-32 0-59.2-25.6-59.2-57.6v0zM646.4 464c0 0 0 0 0 0 3.2-1.6 3.2-4.8 3.2-6.4s0-4.8-1.6-6.4l-14.4-14.4-30.4 27.2 14.4 14.4c1.6 1.6 4.8 3.2 6.4 3.2s3.2 0 4.8-1.6c0 0 0 0 0 0l17.6-16zM432 387.2c-4.8 4.8-12.8 6.4-19.2 3.2s-11.2-9.6-11.2-16v-217.6h-180.8v275.2c0 12.8 9.6 22.4 22.4 22.4h176c6.4 0 11.2-3.2 14.4-4.8 0 0 0 0 0 0l70.4-65.6c3.2-3.2 8-4.8 12.8-4.8s9.6 1.6 12.8 6.4l51.2 56 30.4-27.2-92.8-99.2-86.4 72zM910.4 192h-472v16h472v-16z" />
<glyph unicode="&#xe923;" glyph-name="name-tag-square" d="M869.227 840.935h-190.504v-95.252h142.878v-714.41h-619.158v714.41h142.878v95.252h-190.525c-26.297 0-47.626-21.329-47.626-47.648v-809.662c0-26.297 21.329-47.648 47.626-47.648h714.41c26.297 0 47.648 21.329 47.648 47.648v809.684c-0.022 26.297-21.329 47.626-47.626 47.626zM403.535 654.441c1.699-1.155 42.484-27.822 108.476-27.822s106.755 26.689 108.476 27.822c6.645 4.401 10.588 11.852 10.588 19.804v261.942c0 13.159-10.632 23.813-23.813 23.813h-190.504c-13.159 0-23.813-10.654-23.813-23.813v-261.942c0-7.952 3.987-15.403 10.588-19.804zM440.572 912.352h142.878v-223.772c-13.159-5.861-37.931-14.336-71.417-14.336-33.399 0-58.28 8.519-71.439 14.401l-0.022 223.707zM388.349 191.232c-52.637-17.19-100.001-20.262-100.001-89.914 0-14.27 72.594-27.931 192.443-30l15.164 97.714-7.647 12.266c-1.089 1.721-0.893 3.943 0.458 5.425l19.935 21.547c1.721 1.787 4.837 1.787 6.558 0l19.957-21.547c1.351-1.482 1.525-3.704 0.458-5.425l-7.647-12.266 15.164-97.692c119.871 2.048 192.464 15.708 192.464 29.979 0 69.652-47.386 72.724-100.023 89.914-32.441 10.545-72.637 16.536-64.053 72.376 21.373 19.521 28.846 59.761 28.846 59.761s28.432 14.336 31.656 41.809c2.418 20.937-8.519 30.61-8.519 30.61s0 1.503 0 26.623c0 59.086-50.611 105.688-111.592 105.688s-111.592-46.602-111.592-105.688c0-25.077 0-26.623 0-26.623s-10.937-9.673-8.519-30.61c3.246-27.473 31.656-41.809 31.656-41.809s7.473-40.262 28.846-59.761c8.628-55.839-31.569-61.831-64.010-72.376zM549.963 864.748c0-20.961-16.992-37.953-37.953-37.953s-37.953 16.992-37.953 37.953c0 20.961 16.992 37.953 37.953 37.953s37.953-16.992 37.953-37.953z" />
<glyph unicode="&#xe924;" glyph-name="name-tag" d="M843.2 662.4h-184v1.6c0 27.2-22.4 48-48 48h-33.6c-1.6 25.6-22.4 46.4-48 46.4h-33.6c-25.6 0-48-20.8-48-46.4h-33.6c-27.2 0-48-22.4-48-48v-1.6h-185.6c-43.2 0-76.8-35.2-76.8-76.8v-371.2c0-43.2 35.2-76.8 76.8-76.8h662.4c43.2 0 76.8 35.2 76.8 76.8v371.2c0 43.2-33.6 76.8-76.8 76.8v0zM512 712c16 0 28.8-12.8 28.8-28.8s-12.8-28.8-28.8-28.8c-16 0-28.8 12.8-28.8 28.8s12.8 28.8 28.8 28.8v0zM862.4 214.4c0-11.2-8-19.2-19.2-19.2h-662.4c-11.2 0-19.2 8-19.2 19.2v371.2c0 11.2 8 19.2 19.2 19.2h184c0-27.2 22.4-48 48-48h196.8c27.2 0 48 22.4 48 48v0h184c11.2 0 19.2-8 19.2-19.2v-371.2zM785.6 500.8h-267.2c-11.2 0-19.2-8-19.2-19.2s8-19.2 19.2-19.2h267.2c11.2 0 19.2 8 19.2 19.2s-8 19.2-19.2 19.2v0zM785.6 404.8h-267.2c-11.2 0-19.2-8-19.2-19.2s8-19.2 19.2-19.2h267.2c11.2 0 19.2 8 19.2 19.2 0 9.6-8 19.2-19.2 19.2v0zM785.6 307.2h-267.2c-11.2 0-19.2-8-19.2-19.2s8-19.2 19.2-19.2h267.2c11.2 0 19.2 8 19.2 19.2s-8 19.2-19.2 19.2v0zM403.2 345.6l-33.6 16-16 14.4-25.6-25.6 11.2-76.8c0 0 0 0 0-1.6l-12.8-17.6c0 0 0 0-1.6 0 0 0 0 0-1.6 0l-12.8 17.6c0 0 0 0 0 1.6l11.2 76.8-25.6 25.6-16-14.4-33.6-16c-4.8-1.6-11.2-6.4-12.8-11.2 0 0-36.8-88-17.6-88h216c19.2 0-17.6 88-17.6 88-1.6 6.4-6.4 9.6-11.2 11.2v0zM324.8 376c35.2 0 60.8 32 60.8 86.4 0 36.8-17.6 60.8-60.8 60.8s-60.8-22.4-60.8-60.8c0-54.4 25.6-86.4 60.8-86.4v0z" />
<glyph unicode="&#xe925;" glyph-name="our-value" d="M563.2 603.2h-12.8l11.2-19.2h1.6c3.2 0 4.8 1.6 8 3.2 1.6 1.6 3.2 4.8 3.2 6.4s-1.6 4.8-3.2 6.4c-1.6 1.6-4.8 3.2-8 3.2zM457.6 560c4.8 4.8 6.4 11.2 6.4 19.2s-1.6 14.4-6.4 19.2c-4.8 4.8-11.2 8-17.6 8s-12.8-3.2-17.6-8c-4.8-4.8-6.4-11.2-6.4-19.2s1.6-14.4 6.4-19.2c4.8-4.8 11.2-8 17.6-8s12.8 1.6 17.6 8zM396.8 500.8l-11.2-44.8h24l-11.2 44.8zM179.2 889.6v-881.6l324.8 131.2 342.4-131.2v881.6h-667.2zM699.2 478.4h14.4l1.6-1.6-1.6-17.6h-30.4v-27.2h16l22.4 1.6 1.6-1.6-1.6-17.6h-57.6l1.6 32-1.6 76.8h57.6l1.6-1.6-1.6-17.6-22.4 1.6h-16v-25.6l16-1.6zM603.2 556.8v9.6h137.6v-9.6h-137.6zM550.4 523.2h19.2l-1.6-67.2c0-16 6.4-24 17.6-24 12.8 0 17.6 8 17.6 22.4l-1.6 68.8h22.4v-70.4c0-12.8-3.2-22.4-9.6-30.4-6.4-6.4-16-11.2-27.2-11.2s-20.8 3.2-25.6 9.6c-6.4 6.4-9.6 17.6-8 30.4v16l-3.2 56zM584 542.4h-11.2l-24 46.4v-46.4h-9.6v70.4h27.2c6.4 0 11.2-1.6 14.4-4.8s4.8-8 4.8-14.4c0-6.4-1.6-11.2-6.4-14.4-3.2-3.2-6.4-4.8-11.2-4.8l16-32zM542.4 817.6c0 3.2 1.6 4.8 4.8 4.8s4.8-1.6 4.8-4.8v-112c0 0 0 0 0-1.6 0 0 0 0 0 0s0 0 0 0 0 0 0 0 0 0 0 0 0 0 0 0 0 0 0 0 0 0 0 0 0 0 0 0 0 0 0 0 0 0 0 0 0 0 0 0 0 0 0 0 0 0 0 0 0 0-1.6 0c0 0 0 0 0 0-3.2 0-4.8 1.6-4.8 4.8v108.8zM448 817.6c0 3.2 1.6 4.8 4.8 4.8s4.8-1.6 4.8-4.8v-112c0 0 0 0 0-1.6 0 0 0 0 0 0s0 0 0 0 0 0 0 0 0 0 0 0 0 0 0 0 0 0 0 0 0 0 0 0 0 0 0 0 0 0 0 0 0 0 0 0 0 0 0 0 0 0 0 0 0 0 0 0 0 0-1.6 0c0 0 0 0 0 0-3.2 0-4.8 1.6-4.8 4.8v108.8zM369.6 649.6c12.8 12.8 25.6 22.4 40 30.4-1.6 0-4.8 1.6-4.8 4.8v110.4c0 3.2 1.6 4.8 4.8 4.8s4.8-1.6 4.8-4.8v-110.4c0 0 0-1.6 0-1.6s0 0 0 0 0 0 0 0 0 0 0 0 0 0 0 0c25.6 12.8 52.8 20.8 81.6 22.4v142.4c0 3.2 1.6 4.8 4.8 4.8s4.8-1.6 4.8-4.8v-144c30.4 0 59.2-8 84.8-22.4 0 1.6-1.6 1.6-1.6 3.2v110.4c0 3.2 3.2 4.8 4.8 4.8s4.8-1.6 4.8-4.8v-110.4c0 0 0-1.6 0-1.6s0 0 0 0 0 0 0 0 0 0 0 0 0 0 0 0 0 0 0 0 0 0 0 0 0 0 0 0 0 0 0 0 0 0 0 0 0 0 0 0 0 0 0 0 0 0 0 0 0 0-1.6 0c0 0 0 0 0 0v0c0 0 0 0 0 0 14.4-8 28.8-19.2 40-30.4 1.6-1.6 1.6-4.8 0-6.4s-1.6-1.6-3.2-1.6-3.2 0-3.2 1.6c-33.6 33.6-78.4 51.2-124.8 51.2-48 0-91.2-19.2-124.8-51.2-1.6-1.6-1.6-1.6-3.2-1.6s-3.2 0-3.2 1.6c-6.4-3.2-6.4-1.6-6.4 0s0 1.6 1.6 3.2zM414.4 552c-6.4 6.4-9.6 16-9.6 25.6s3.2 19.2 9.6 25.6c6.4 6.4 14.4 9.6 25.6 9.6s19.2-3.2 25.6-9.6c6.4-6.4 9.6-16 9.6-25.6s-3.2-19.2-9.6-25.6c-6.4-6.4-14.4-9.6-25.6-9.6s-19.2 3.2-25.6 9.6zM438.4 412.8h-19.2l-3.2 14.4-1.6 9.6h-33.6l-1.6-9.6-3.2-16h-19.2l30.4 108.8h22.4l28.8-107.2zM472 523.2h19.2l-1.6-75.2v-16h30.4l1.6-1.6-1.6-17.6h-49.6l1.6 32v78.4zM520 548.8c-3.2-4.8-9.6-6.4-16-6.4s-11.2 1.6-16 6.4c-3.2 4.8-6.4 9.6-6.4 16v49.6h9.6v-49.6c0-3.2 1.6-6.4 3.2-8s4.8-3.2 8-3.2c3.2 0 6.4 1.6 8 3.2s3.2 4.8 3.2 8v49.6h9.6v-49.6c1.6-6.4 0-12.8-3.2-16zM236.8 566.4h137.6v-9.6h-137.6v9.6zM339.2 523.2l-30.4-108.8h-22.4l-27.2 108.8h19.2l1.6-14.4 17.6-73.6h1.6l19.2 72 3.2 16h17.6zM630.4 337.6h-32c0 0 0-1.6 0-3.2v-91.2c0 0 0 0 0-1.6 0 0 0 0 0 0s0 0 0 0 0 0 0 0 0 0 0 0 0 0 0 0 0 0 0 0 0 0 0 0 0 0 0 0 0 0 0 0 0 0 0 0 0 0 0 0 0 0 0 0 0 0 0 0 0 0-1.6 0c0 0 0 0 0 0-1.6 0-3.2 0-4.8 1.6 0 0 0 1.6 0 3.2v89.6c0 1.6 0 1.6 0 3.2h-35.2c0 0 0-1.6 0-3.2v-112c0 0 0 0 0-1.6 0 0 0 0 0 0s0 0 0 0 0 0 0 0 0 0 0 0 0 0 0 0 0 0 0 0 0 0 0 0 0 0 0 0 0 0 0 0 0 0 0 0 0 0 0 0 0 0 0 0 0 0 0 0 0 0-1.6 0c-3.2 0-4.8 1.6-4.8 4.8v112c0 1.6 0 1.6 0 3.2h-40v-150.4c0-3.2-1.6-4.8-4.8-4.8 0 0 0 0-1.6 0 0 0 0 0 0 0s0 0 0 0 0 0 0 0 0 0 0 0 0 0 0 0 0 0 0 0 0 0 0 0 0 0 0 0 0 0 0 0 0 0 0 0 0 0 0 0 0 0 0 0 0 0 0 0 0 0 0 1.6v145.6h-38.4c0 0 0-1.6 0-3.2v-112c0 0 0 0 0-1.6 0 0 0 0 0 0s0 0 0 0 0 0 0 0 0 0 0 0 0 0 0 0 0 0 0 0 0 0 0 0 0 0 0 0 0 0 0 0 0 0 0 0 0 0 0 0 0 0 0 0 0 0 0 0 0 0-1.6 0c-3.2 0-4.8 1.6-4.8 4.8v112c0 1.6 0 1.6 0 3.2h-38.4c0 0 0-1.6 0-3.2v-91.2c0 0 0 0 0-1.6 0 0 0 0 0 0s0 0 0 0 0 0 0 0 0 0 0 0 0 0 0 0 0 0 0 0 0 0 0 0 0 0 0 0 0 0 0 0 0 0 0 0 0 0 0 0 0 0 0 0 0 0 0 0 0 0-1.6 0c0 0 0 0 0 0-1.6 0-3.2 0-4.8 1.6 0 0 0 1.6 0 3.2v89.6c0 1.6 0 1.6 0 3.2h-32c-3.2 0-4.8 1.6-4.8 4.8s1.6 4.8 4.8 4.8h257.6c3.2 0 4.8-1.6 4.8-4.8s-11.2-6.4-14.4-6.4zM750.4 361.6h-513.6v9.6h513.6v-9.6z" />
<glyph unicode="&#xe926;" glyph-name="paperwork" d="M643.639 290.047c0.749-0.1 1.504-0.152 2.256-0.152 2.509 0 4.988 0.545 7.279 1.588l360.584 164.472c7.471 3.393 11.551 11.512 9.863 19.554-1.708 8.015-8.751 13.784-16.954 13.878-2.94 0.036-294.9 6.249-424.457 265.17-12.235 24.435-42.351 39.029-68.377 32.784l-300.974-72.516c-14.527-3.504-26.097-12.76-31.73-25.381-5.513-12.339-4.742-26.687 2.1-39.376 52.279-97.080 201.813-326.452 460.41-360.020zM213.066 675.166c1.18 2.625 4.084 4.693 7.983 5.614l300.984 72.513c1.488 0.366 3.076 0.548 4.7 0.548 9.671 0 19.826-6.297 24.166-14.964 100.432-200.698 291.105-259.871 390.889-277.288l-298.573-136.194c-239.565 33.775-379.83 249.558-429.218 341.254-1.154 2.201-2.272 5.474-0.93 8.518zM0 144.133h636.327v-36.9h-636.327v36.9zM1006.495 270.494v36.887l-360.669-163.247v-36.916zM1006.495 320.264h-93.768l-269.056-128.425-11.726-0.052c-162.687 0-293.721 28.781-391.683 62.589l-240.262-96.824h637.435l369.060 162.712zM68.536 372.073c69.923-44.183 265.52-146.922 571.135-145.162l356.121 169.979c0 0-19.194-0.104-50.642 0.82l-304.319-138.819-4.972 0.648c-174.004 22.597-298.268 133.572-376.307 231.874l-187.974-85.108c-17.602-7.983-19.388-23.913-3.043-34.232z" />
<glyph unicode="&#xe927;" glyph-name="pen-and-paper" d="M59.746 432.385c0.019-0.181 0.055-0.357 0.078-0.538 0.061-0.502 0.126-1.003 0.223-1.499 0.032-0.153 0.078-0.305 0.111-0.458 0.114-0.517 0.233-1.032 0.387-1.543 0.034-0.109 0.078-0.214 0.114-0.324 0.174-0.544 0.359-1.085 0.578-1.616 0.032-0.074 0.069-0.145 0.101-0.219 0.235-0.553 0.488-1.101 0.774-1.637 0.044-0.084 0.099-0.162 0.145-0.244 0.282-0.513 0.576-1.019 0.906-1.513 0.135-0.202 0.292-0.393 0.435-0.591 0.256-0.357 0.504-0.719 0.788-1.064 0.444-0.544 0.914-1.068 1.415-1.568l101.923-101.921c4.105-4.103 9.484-6.157 14.863-6.157s10.76 2.054 14.863 6.157c8.208 8.208 8.208 21.518 0 29.728l-87.060 87.060 80.078 80.078c3.941 3.943 6.157 9.288 6.157 14.863s-2.215 10.92-6.157 14.863l-80.076 80.078 284.937 284.933 166.577-166.577c8.21-8.206 21.52-8.208 29.728 0s8.208 21.518 0 29.728l-181.44 181.44c-3.945 3.941-9.291 6.157-14.865 6.157s-10.922-2.215-14.863-6.157l-314.663-314.661c-0.496-0.498-0.965-1.017-1.406-1.555-0.368-0.448-0.7-0.914-1.024-1.383-0.063-0.092-0.137-0.177-0.2-0.271-0.368-0.549-0.7-1.114-1.011-1.69-0.013-0.023-0.029-0.044-0.040-0.069-0.309-0.578-0.584-1.167-0.834-1.766-0.013-0.032-0.029-0.061-0.042-0.090-0.231-0.563-0.431-1.135-0.614-1.711-0.025-0.078-0.057-0.153-0.080-0.231-0.162-0.534-0.288-1.076-0.406-1.621-0.027-0.128-0.067-0.254-0.092-0.383-0.103-0.519-0.17-1.040-0.233-1.564-0.019-0.16-0.053-0.315-0.069-0.475-0.067-0.683-0.101-1.368-0.101-2.054v-189.883c0-0.019 0.002-0.036 0.002-0.053-0.002-0.668 0.029-1.335 0.095-1.999zM101.684 485.183v88.391l44.195-44.195-44.195-44.195zM648.183 499.18c4.105-4.103 9.484-6.157 14.863-6.157s10.758 2.054 14.863 6.157l209.173 209.173c41.36 41.364 41.36 108.662 0 150.026-20.013 20.011-46.651 31.031-75.014 31.031s-55.002-11.020-75.014-31.031l-209.173-209.173c-8.208-8.208-8.208-21.518 0-29.728l0.559-0.559-386.739-386.743c-59.666-59.666-85.141-120.048-69.173-158.625l-31.075-31.077c-8.208-8.208-8.208-21.518 0-29.728 4.105-4.103 9.484-6.157 14.863-6.157s10.76 2.054 14.863 6.157l31.121 31.123c6.812-2.821 15.205-4.795 25.423-4.792 10.613 0 23.172 2.117 37.915 7.584 30.066 11.155 62.999 34.094 95.243 66.335l386.743 386.743 0.559-0.559zM766.783 828.652c12.069 12.069 28.153 18.718 45.286 18.718s33.217-6.648 45.286-18.718c24.971-24.971 24.971-65.602 0-90.573l-194.308-194.31-0.519 0.519c-0.013 0.015-0.025 0.029-0.038 0.042s-0.029 0.025-0.042 0.038l-29.822 29.824 200.198 200.198c8.208 8.208 8.208 21.518 0 29.728-8.21 8.206-21.516 8.206-29.728 0l-200.198-200.198-29.843 29.843c-0.006 0.006-0.013 0.015-0.019 0.021s-0.015 0.013-0.021 0.019l-0.538 0.538 194.306 194.31zM151.016 86.075c-17.135-6.354-30.917-6.596-36.874-0.637-11.38 11.38-1.715 51.767 42.84 101.73l58.888-58.886c-22.634-20.17-45.2-34.915-64.853-42.207zM246.018 157.587l-59.727 59.727 371.878 371.878 14.999-14.999-13.78-13.78c-8.208-8.208-8.208-21.518 0-29.728 4.105-4.103 9.484-6.157 14.863-6.157s10.758 2.054 14.863 6.157l13.78 13.78 14.999-14.999-371.876-371.878zM982.548 381.484l-181.44 181.44c-8.21 8.206-21.516 8.206-29.728 0-8.208-8.208-8.208-21.518 0-29.728l166.577-166.577-379.874-379.872-182.001 182.001c-8.208 8.206-21.518 8.206-29.728 0-8.208-8.208-8.208-21.518 0-29.728l196.864-196.864c4.105-4.103 9.484-6.157 14.863-6.157s10.758 2.054 14.863 6.157l409.602 409.602c8.21 8.208 8.21 21.518 0.002 29.726z" />
<glyph unicode="&#xe928;" glyph-name="pencil" d="M828.041 960h-236.614c-26.052 0-47.243-21.191-47.243-47.243v-708.369c0-15.635 5.983-36.619 14.222-49.896l117.283-189.035c7.895-12.722 20.307-20.023 34.049-20.023s26.15 7.302 34.049 20.027l117.275 189.028c8.243 13.285 14.226 34.264 14.226 49.9v708.369c-0.004 26.052-21.199 47.243-47.247 47.243zM730.577 51.711h-41.687l-65.418 105.434h172.519l-65.414-105.434zM600.871 213.837v561.195h80.513v-561.191h-80.513zM738.079 213.837v561.195h80.513v-561.191h-80.513zM818.592 903.309v-71.586h-217.717v71.586h217.717zM588.792-7.309h-411.726c-15.654 0-28.346-12.688-28.346-28.346 0-15.654 12.691-28.346 28.346-28.346h411.726c15.654 0 28.346 12.691 28.346 28.346s-12.691 28.346-28.346 28.346z" />
</font>
</defs>
</svg>
