<?xml version="1.0" encoding="utf-8"?>
<!-- Generator: Adobe Illustrator 18.1.1, SVG Export Plug-In . SVG Version: 6.00 Build 0)  -->
<svg version="1.1" id="Layer_1" xmlns="http://www.w3.org/2000/svg" xmlns:xlink="http://www.w3.org/1999/xlink" x="0px" y="0px"
	 viewBox="0 287.2 1280 225.7" enable-background="new 0 287.2 1280 225.7" xml:space="preserve">
<g>
	<g>
		<g>
			<g>
				
					<linearGradient id="SVGID_2_" gradientUnits="userSpaceOnUse" x1="30" y1="770.2972" x2="51.4376" y2="770.2972" gradientTransform="matrix(4.6545 0 0 -4.6545 0 4017.0471)">
					<stop  offset="0" style="stop-color:#A67F37"/>
					<stop  offset="0.5" style="stop-color:#F6E385"/>
					<stop  offset="1" style="stop-color:#A67F37"/>
				</linearGradient>
				<path id="SVGID_1_" fill="url(#SVGID_2_)" d="M203.9,403.3c5.6,6.1,10.2,14.4,11.6,23.3c0.9,10.2-0.9,18.6-5.6,25.6
					c-26.1,28.9-66.1-3.7-69.4-9.8c-0.9,6.5-0.9,7-0.9,12.6c7,6.5,42.4,31.2,81.9,9.3c24.7-15.8,22.3-43.8,1.9-74
					C217.8,395.8,208.5,400.9,203.9,403.3"/>
			</g>
		</g>
		<g>
			<g>
				
					<linearGradient id="SVGID_3_" gradientUnits="userSpaceOnUse" x1="0.3797" y1="783.8729" x2="16.0047" y2="790.2479" gradientTransform="matrix(4.6545 0 0 -4.6545 0 4017.0471)">
					<stop  offset="0" style="stop-color:#A67F37"/>
					<stop  offset="0.5" style="stop-color:#F6E385"/>
					<stop  offset="1" style="stop-color:#A67F37"/>
				</linearGradient>
				<path id="SVGID_4_" fill="url(#SVGID_3_)" d="M25.1,390.7c12.1-8.8,20-13,25.1-14.4c-7.9-4.2-13.5-15.8-15.4-26.5
					c-9.3-6.5-22.8-17.2-22.8-17.2S0,358.1,25.1,390.7"/>
			</g>
		</g>
		<g>
			<g>
				
					<linearGradient id="SVGID_5_" gradientUnits="userSpaceOnUse" x1="177.65" y1="788.25" x2="177.65" y2="771.184" gradientTransform="matrix(4.6545 0 0 -4.6545 0 4017.0471)">
					<stop  offset="0" style="stop-color:#A67F37"/>
					<stop  offset="0.5" style="stop-color:#F6E385"/>
					<stop  offset="1" style="stop-color:#A67F37"/>
				</linearGradient>
				<path id="SVGID_7_" fill="url(#SVGID_5_)" d="M820.1,418.2l9.8-3.7v7.4L820.1,418.2z M814.5,416.8l0.5,2.3l24.2,9.3v-3.3
					l-6.5-2.3v-9.3l6.5-2.3v-3.7L814.5,416.8z"/>
			</g>
		</g>
		<g>
			<g>
				
					<linearGradient id="SVGID_6_" gradientUnits="userSpaceOnUse" x1="177.65" y1="788.25" x2="177.65" y2="771.184" gradientTransform="matrix(4.6545 0 0 -4.6545 0 4017.0471)">
					<stop  offset="0" style="stop-color:#A67F37"/>
					<stop  offset="0.5" style="stop-color:#F6E385"/>
					<stop  offset="1" style="stop-color:#A67F37"/>
				</linearGradient>
				<path id="SVGID_10_" fill="url(#SVGID_6_)" d="M820.1,418.2l9.8-3.7v7.4L820.1,418.2z M814.5,416.8l0.5,2.3l24.2,9.3v-3.3
					l-6.5-2.3v-9.3l6.5-2.3v-3.7L814.5,416.8z"/>
			</g>
		</g>
		<g>
			<g>
				
					<linearGradient id="SVGID_8_" gradientUnits="userSpaceOnUse" x1="177.7" y1="788.25" x2="177.7" y2="771.184" gradientTransform="matrix(4.6545 0 0 -4.6545 0 4017.0471)">
					<stop  offset="0" style="stop-color:#A67F37"/>
					<stop  offset="0.5" style="stop-color:#F6E385"/>
					<stop  offset="1" style="stop-color:#A67F37"/>
				</linearGradient>
				<polygon id="SVGID_13_" fill="url(#SVGID_8_)" points="815,385.1 815,387.9 833.2,387.9 815,401.4 815,403.7 839.2,403.7 
					839.2,400.9 821.5,400.9 839.2,387.4 839.2,385.1 				"/>
			</g>
		</g>
		<g>
			<g>
				
					<linearGradient id="SVGID_9_" gradientUnits="userSpaceOnUse" x1="177.7" y1="788.25" x2="177.7" y2="771.184" gradientTransform="matrix(4.6545 0 0 -4.6545 0 4017.0471)">
					<stop  offset="0" style="stop-color:#A67F37"/>
					<stop  offset="0.5" style="stop-color:#F6E385"/>
					<stop  offset="1" style="stop-color:#A67F37"/>
				</linearGradient>
				<polygon id="SVGID_16_" fill="url(#SVGID_9_)" points="815,385.1 815,387.9 833.2,387.9 815,401.4 815,403.7 839.2,403.7 
					839.2,400.9 821.5,400.9 839.2,387.4 839.2,385.1 				"/>
			</g>
		</g>
		<g>
			<g>
				
					<linearGradient id="SVGID_11_" gradientUnits="userSpaceOnUse" x1="177.7" y1="788.25" x2="177.7" y2="771.184" gradientTransform="matrix(4.6545 0 0 -4.6545 0 4017.0471)">
					<stop  offset="0" style="stop-color:#A67F37"/>
					<stop  offset="0.5" style="stop-color:#F6E385"/>
					<stop  offset="1" style="stop-color:#A67F37"/>
				</linearGradient>
				<path id="SVGID_19_" fill="url(#SVGID_11_)" d="M817.8,373c0-1.4,0-2.8,0.5-4.2c0.5-1.4,0.9-2.3,1.9-2.8
					c0.9-0.9,1.9-1.4,3.3-1.9c0.9-0.5,2.3-0.5,3.7-0.5c1.9,0,3.3,0,4.7,0.5c1.4,0.5,2.3,0.9,3.3,1.9s1.4,1.9,1.9,3.3
					s0.5,2.3,0.5,3.7v3.3h-19.1V373H817.8z M821.1,361.4c-1.9,0.9-3.3,2.3-4.2,3.7c-0.5,0.9-0.9,1.9-1.4,3.3
					c-0.5,1.4-0.5,3.3-0.5,5.1v6.1h24.2v-7c0-1.4,0-2.8-0.5-4.2c-0.5-1.4-0.5-2.3-1.4-3.3c-0.9-1.9-2.3-2.8-4.2-3.7
					c-1.9-0.9-3.7-1.4-6.5-1.4C824.8,360,822.9,360.4,821.1,361.4"/>
			</g>
		</g>
		<g>
			<g>
				
					<linearGradient id="SVGID_12_" gradientUnits="userSpaceOnUse" x1="177.7" y1="788.25" x2="177.7" y2="771.184" gradientTransform="matrix(4.6545 0 0 -4.6545 0 4017.0471)">
					<stop  offset="0" style="stop-color:#A67F37"/>
					<stop  offset="0.5" style="stop-color:#F6E385"/>
					<stop  offset="1" style="stop-color:#A67F37"/>
				</linearGradient>
				<path id="SVGID_22_" fill="url(#SVGID_12_)" d="M817.8,373c0-1.4,0-2.8,0.5-4.2c0.5-1.4,0.9-2.3,1.9-2.8
					c0.9-0.9,1.9-1.4,3.3-1.9c0.9-0.5,2.3-0.5,3.7-0.5c1.9,0,3.3,0,4.7,0.5c1.4,0.5,2.3,0.9,3.3,1.9s1.4,1.9,1.9,3.3
					s0.5,2.3,0.5,3.7v3.3h-19.1V373H817.8z M821.1,361.4c-1.9,0.9-3.3,2.3-4.2,3.7c-0.5,0.9-0.9,1.9-1.4,3.3
					c-0.5,1.4-0.5,3.3-0.5,5.1v6.1h24.2v-7c0-1.4,0-2.8-0.5-4.2c-0.5-1.4-0.5-2.3-1.4-3.3c-0.9-1.9-2.3-2.8-4.2-3.7
					c-1.9-0.9-3.7-1.4-6.5-1.4C824.8,360,822.9,360.4,821.1,361.4"/>
			</g>
		</g>
	</g>
	<g>
		<path fill="#46411B" d="M137.8,389.3V340c2.8-6.1,6.5-11.2,12.1-14.9c5.6-3.7,11.2-6.1,17.7-7c6.1-0.9,12.6-0.5,18.2,0.9
			c6.1,1.9,10.7,4.7,14.9,8.4c3.3,3.3,5.1,7.4,6.5,12.6c1.4,5.1,1.9,10.7,1.4,15.8c-0.5,5.6-1.4,10.7-3.3,15.8
			c-1.9,5.1-4.2,8.8-7,11.6c-5.6,5.6-12.6,9.3-20.9,11.2c-8.4,1.9-16.3,2.8-24.2,2.8c-3.3,0-6.1,0.5-8.4,0.5h-7
			C137.8,397.7,137.8,389.3,137.8,389.3z M111.2,391.2v49.3c-2.8,6.1-6.5,11.2-12.1,14.9c-5.6,3.7-11.2,6.1-17.7,7
			c-6.1,0.9-12.6,0.5-18.2-0.9c-6.1-1.9-10.7-4.7-14.9-8.4c-3.3-3.3-5.1-7.4-6.5-12.6c-1.4-5.1-1.9-10.7-1.4-15.8
			c0.5-5.6,1.4-10.7,3.3-15.8c1.9-5.1,4.2-8.8,7-11.6c5.6-5.6,12.6-9.3,20.9-11.2s16.3-2.8,24.2-2.8c3.3-0.5,6.1-0.5,8.4-0.5h7
			V391.2z M111.7,370.7c-2.3-0.5-4.2-0.5-6.1-0.5s-3.3,0-3.7,0c-6.5,0.5-13,0.9-19.1,1.9c-6.5,0.5-12.6,1.9-19.1,3.7
			c-12.6,3.7-23.7,9.3-33,16.8s-14.4,18.6-14.9,32.6c-0.9,10.7,0.5,20,3.3,26.5c2.8,7,7,12.1,12.6,16.3c5.1,3.7,11.6,6.5,18.6,7.4
			c7,1.4,14,1.4,21.4,0.5c7.4-0.5,14.9-2.3,21.4-5.6c7-3.3,13-7,18.2-11.6l0,0c0.5-0.5,0.9-1.4,0.9-1.4l0.5-0.5c0,1.9,0,4.2,0,6.1
			c0,6.5-0.5,12.6-0.9,17.7c-0.5,6.5,0.5,13,1.9,18.6l24.2-20.9c-0.5-4.7-0.5-9.8-0.5-15.4c0-6.5,0-13.5,0-20.5v-20l0,0v-10.7l0,0
			c0-0.9,0-1.9,0-2.8c2.3,0.5,4.2,0.5,6.1,0.5s3.3,0,3.7,0c6.5-0.5,13-0.9,19.1-1.9c6.5-0.5,12.6-1.9,19.1-3.7
			c12.6-3.7,23.7-9.3,33-16.8c9.3-7.9,14.4-18.6,14.9-32.6c0.9-10.7-0.5-20-3.3-26.5c-2.8-7-7-12.1-12.6-16.3
			c-5.1-3.7-11.6-6.5-18.6-7.4c-7-0.9-14-1.4-21.4-0.5c-7.4,0.5-14.9,2.3-21.4,5.6c-2.3,1.4-4.2,2.8-6.5,3.7
			c-6.5,4.7-10.7,7-16.3,14.9c0,0,0,0.5-0.5,0.9l0,0c-0.9,1.4-1.9,2.8-2.8,4.2c-1.4-3.3-3.7-6.1-6.1-8.4c-7-7.4-15.4-12.6-26.5-15.8
			c-10.7-3.3-21.9-4.7-32.6-4.7c-11.2,0.5-21.4,2.8-31.2,7c-8.8,4.2-15.8,10.2-20.5,18.2L34.9,346c0.5-9.3,3.7-17.2,10.2-23.3
			c6.1-6.1,13-9.3,20.5-9.3c11.6,0,20.9,1.9,27.5,5.1c6.5,3.7,11.2,7.9,14,13.5s4.7,11.6,4.7,18.6c0,3.3,0,6.5,0,9.8s0,6.5,0,9.8
			C111.7,369.7,112.2,370.2,111.7,370.7"/>
		<path fill="#46411B" d="M294.6,402.3h20.5l-10.2-27.5L294.6,402.3z M309.1,359l26.5,69.4h-10.7l-7-18.6h-26.1l-7,18.6H276l26.5-68
			L309.1,359z"/>
		<polygon fill="#46411B" points="352.3,360 389.6,411.2 389.6,360 398,360 398,428.4 391,428.4 353.3,378.1 353.3,428.4 
			344.9,428.4 344.9,360 		"/>
		<path fill="#46411B" d="M461.3,370.2c-5.1-2.8-10.7-3.7-16.8-3.7c-3.7,0-7.4,0.9-10.2,2.3c-3.3,1.4-5.6,3.3-7.4,6.1
			c-1.9,2.3-3.7,5.6-4.7,8.8c-0.9,3.3-1.4,7-1.4,10.7c0,5.1,0.9,9.8,2.3,13c1.4,3.7,3.3,6.5,5.6,8.4c2.3,2.3,4.7,3.7,7.4,4.7
			s5.1,1.4,7.9,1.4c1.9,0,4.2,0,6.5-0.5c2.3-0.5,4.7-0.9,6.5-1.9v-20.5h-11.6l2.3-7.4h18.6v32.1c-0.9,0.9-2.8,1.4-4.2,2.3
			c-1.9,0.9-3.3,1.4-5.6,1.9c-1.9,0.5-4.2,0.9-6.1,1.4c-2.3,0.5-4.2,0.5-6.5,0.5c-5.1,0-9.8-0.9-14-2.3s-7.9-3.7-10.7-7
			c-2.8-3.3-5.1-7-7-11.2c-1.4-4.2-2.3-9.3-2.3-14.9c0-4.7,0.9-8.8,2.3-13c1.4-4.2,3.7-7.9,6.5-11.6c2.8-3.3,6.5-6.1,10.7-7.9
			c4.2-1.9,9.3-3.3,14.4-3.3c3.7,0,7,0.5,10.2,0.9c3.3,0.5,6.1,1.4,8.4,2.8L461.3,370.2z"/>
		<path fill="#46411B" d="M528.3,370.2c-5.1-2.8-10.7-3.7-16.8-3.7c-3.7,0-7.4,0.9-10.2,2.3c-2.8,1.4-5.6,3.3-7.4,6.1
			c-1.9,2.3-3.7,5.6-4.7,8.8c-0.9,3.3-1.9,7-1.9,10.7c0,5.1,0.9,9.8,2.3,13c1.4,3.7,3.3,6.5,5.6,8.4c2.3,2.3,4.7,3.7,7.4,4.7
			s5.1,1.4,7.9,1.4c1.9,0,4.2,0,6.5-0.5c2.3-0.5,4.7-0.9,6.5-1.9v-20.5H512l2.3-7.4h18.6v32.1c-0.9,0.9-2.8,1.4-4.2,2.3
			c-1.9,0.9-3.3,1.4-5.6,1.9c-1.9,0.5-4.2,0.9-6.1,1.4c-2.3,0.5-4.2,0.5-6.5,0.5c-5.1,0-9.8-0.9-14-2.3c-4.2-1.4-7.9-3.7-10.7-7
			c-2.8-3.3-5.1-7-7-11.2c-1.4-4.2-2.3-9.3-2.3-14.9c0-4.7,0.9-8.8,2.3-13c1.4-4.2,3.7-7.9,6.5-11.6c2.8-3.3,6.5-6.1,10.7-7.9
			c4.2-1.9,9.3-3.3,14.4-3.3c3.7,0,7,0.5,10.2,0.9c3.3,0.5,6.1,1.4,8.4,2.8L528.3,370.2z"/>
		<path fill="#46411B" d="M557.1,393.9h9.3c5.1,0,9.3-0.9,11.6-2.8c2.8-1.9,3.7-5.6,3.7-10.2c0-5.1-1.4-8.4-4.2-10.2
			c-2.8-1.9-6.5-2.8-11.6-2.8h-9.3v26.1H557.1z M563.7,360c4.7,0,8.8,0.5,11.6,0.9c3.3,0.5,6.1,1.4,8.4,2.8c2.8,1.9,5.1,3.7,6.5,7
			c1.4,2.8,1.9,6.1,1.9,9.8c0,4.7-0.9,8.4-2.8,12.1c-1.9,3.7-4.7,6.1-8.8,7.4l15.8,28.4h-10.7l-14.9-26.5h-14.4v26.5h-9.3V360H563.7
			z"/>
		<path fill="#46411B" d="M618.6,402.3h20.5l-10.2-27.5L618.6,402.3z M632.6,359l27,69.4h-10.7l-7-18.6h-26.1l-7,18.6H600l26.1-68
			L632.6,359z"/>
		<polygon fill="#46411B" points="707.5,360 705.6,367.4 678.2,367.4 678.2,391.2 702.4,391.2 700.5,398.6 678.2,398.6 678.2,420.9 
			709.4,420.9 707.5,428.4 668.9,428.4 668.9,360 		"/>
		<polygon fill="#46411B" points="727.5,360 765.2,411.2 765.2,360 773.1,360 773.1,428.4 766.1,428.4 728.4,378.1 728.4,428.4 
			720.1,428.4 720.1,360 		"/>
		<rect x="788.9" y="360" fill="#46411B" width="9.8" height="68.4"/>
		<path fill="#46411B" d="M943,346.5c5.1,3.3,7.9,7,7.9,10.7c0,1.4-0.5,2.8-1.4,4.2c-2.3,3.7-9.3,7-20,9.3
			c-7.9,1.9-20.9,3.7-39.6,5.6c-7.9,0.9-14.4,1.9-18.6,2.3c0.5,23.3,1.9,40.5,4.2,51.2c0,0.9,0,1.9-0.5,2.3
			c-0.5,0.5-1.4,0.9-2.3,0.9c-1.4,0-2.3-0.9-2.8-2.3c-0.5-2.8-1.4-8.8-2.3-18.6c-0.9-11.2-1.9-21.4-2.3-29.8
			c-3.7,1.9-6.5,3.3-8.4,3.3c-2.8,0-4.7-1.4-4.7-4.7c0-0.5,0-0.9,0-1.4c0.5-2.8,4.7-4.7,12.6-6.1c0-8.4,0.9-13.5,2.3-14.4
			c0.5-0.5,0.9-0.5,1.4-0.5c1.9,0,2.8,0.9,2.8,3.3c0,0.5,0,0.5,0,0.9c-0.5,0.9-0.5,4.2-0.5,9.8c4.2-0.5,10.2-1.4,17.7-2.3
			c14.4-1.4,24.7-2.8,30.7-4.2c16.8-2.8,25.1-6.1,25.1-9.3c0-1.9-2.3-4.2-7.4-6.5c-3.3-1.9-6.1-2.8-8.8-3.7
			c-22.8-7.9-62.4-12.1-118.2-12.1c-29.8,0-52.6,0.9-67.5,3.3c1.9,0,2.8,0.9,2.8,2.8c0,0.9-0.5,1.4-1.4,2.3
			c-1.4,0.9-3.7,1.4-6.5,1.4c-3.3,0-5.6-0.5-7.4-1.4c-1.9-0.9-2.8-1.9-2.8-3.7c0-1.4,0.9-2.8,2.3-4.2c2.8-1.9,11.6-3.7,26.5-4.7
			c14.9-1.4,32.1-1.9,52.1-1.9c24.7,0,47.5,0.9,68.4,2.8c24.2,2.3,42.4,5.1,54.5,9.3C935.6,342.3,939.8,344.1,943,346.5"/>
		<path fill="#46411B" d="M1178.5,432.6c1.9,0,5.1-0.9,8.8-2.8c4.2-2.3,6.5-4.2,6.5-6.1v-0.5c-4.7-4.7-11.6-7.9-21.4-9.8
			c-7.4-0.9-14.9-2.3-22.3-3.7c-7-1.4-10.2-4.2-10.2-8.4c0-5.1,5.1-9.3,15.8-11.6c7-1.9,14.4-2.3,22.3-2.3c4.7,0,9.3,0.5,13.5,1.4
			c7,1.4,10.2,3.7,10.2,6.5c0,1.9-0.9,2.8-2.8,2.8c-0.9,0-1.4-0.5-2.3-0.9c-3.3-2.8-9.8-4.2-19.1-4.2c-7.9,0-14.9,0.9-21.9,2.8
			s-10.7,3.7-10.7,5.6c0,1.4,2.3,2.8,6.5,3.3c0.9,0,3.7,0.5,7.9,0.9c8.8,0.9,15.4,2.3,20.5,3.7c7.4,2.3,13.5,5.6,17.7,9.8
			c1.4,1.4,2.3,2.8,2.3,4.7c0,3.3-2.8,7-7.9,10.2s-9.3,4.7-13.5,4.7c-2.3,0-4.7-0.5-7-1.9s-3.7-3.3-3.7-5.6c0-1.4,0.5-2.8,1.4-4.2
			s1.9-2.3,3.3-2.3c1.9,0,2.3,0.5,2.3,1.4c0,0.5,0,0.9-0.5,1.9c-0.5,0.9-0.5,1.9-0.5,2.3C1173.4,431.7,1175.3,432.6,1178.5,432.6"/>
		<path fill="#46411B" d="M1173.9,427.9l-5.1-1.4c13-21.4,85.6-53.1,101-54.5c0.9,0,3.3-0.5,2.8,1.4c0,0.9-0.9,0.9-1.9,1.4
			c-0.5,0.5-0.9,1.4-1.4,1.9c-1.4,0.9-3.7,0.5-5.1,0.9c-6.5,0.9-13,2.8-19.1,5.1C1208.3,396.3,1175.3,421.4,1173.9,427.9"/>
		<path fill="#46411B" d="M1085.9,393.5c0.5-2.8,1.9-5.6,3.7-7.4c2.3-2.8,7-1.9,5.6,2.3c-0.5,0.9-0.9,1.9-1.4,2.8
			c-0.9,1.4-2.3,2.8-3.3,3.7C1088.2,396.3,1085.4,396.7,1085.9,393.5 M1139.4,406.5c-1.9,1.4-3.7,3.7-6.1,5.1
			c-1.4,0.5-2.8,0.9-3.7,0.5c-0.9-0.5-0.9-1.9-0.9-2.8c0.5-3.3,2.3-6.1,2.8-9.3c0.5-2.3,0.5-5.1,0-7.9c-0.9-3.3-3.3-4.7-5.1-6.5
			c-0.9-0.5-1.4-1.4-2.3-1.9c-0.9-0.5-2.3,0-3.7,0.5c-0.5,0.5-4.2,2.3-4.2,3.3c0.5,1.9,0.5,2.8-0.5,4.2c-3.3,5.1-7.9,9.8-12.6,14
			c-0.5,0.5-1.4,1.4-0.9,1.9c-0.5-0.5-1.4,0-2.3,0.5c-2.3,1.4-5.6,1.9-8.4,1.4c-2.8-0.9-5.6-3.7-5.1-6.5c0.5-2.8,2.8-4.7,4.7-6.5
			c3.3-2.8,6.1-6.5,7.4-10.7c0.5-1.4,0.9-2.8,0.5-4.2c0-1.4-0.9-2.8-2.3-3.3c-1.9-0.9-4.2,0.5-5.6,1.9c-5.1,4.7-8.8,11.2-9.8,17.7
			c0,1.4-0.5,2.3-0.9,3.3c-0.5,0.5-0.9,1.4-1.9,1.9c-0.9,0.9-1.9,1.4-2.8,2.3c-0.5,0.5-1.4,1.4-1.9,1.9c0,0,0,0.5,0,0.9l0,0
			c-0.5-0.5-0.9,0-1.9,0c-1.4,0-3.3-1.4-3.7-2.8c-0.9-1.9-1.4-4.2-1.9-6.5c-0.9-2.3-2.3-4.2-4.7-4.2c-0.9,0-1.9,0.5-2.8,0.9
			c-6.1,3.3-9.8,10.2-15.4,14.4c0,0,0,0-0.5,0c0,0,0,0-0.5,0c-0.9-0.9-1.4-2.3-1.4-3.7c0-2.8,1.9-5.6,2.8-7.9
			c0.9-2.8,1.9-5.6,2.3-8.8c0-0.9,0.5-2.3,0-3.3c-0.9-1.4-2.3-1.4-3.7-0.9s-2.3,1.4-3.3,2.8c-6.1,6.5-11.6,12.6-17.7,19.1
			c-0.5,0.5-0.5,0.9-0.5,1.4v-0.5c-1.4,1.4-3.3,2.3-4.7,3.7c-1.4,0.9-2.8,1.9-4.2,1.4c-0.9-0.5-1.4-1.4-1.4-2.3
			c-0.5-2.8,0.5-6.5,1.4-9.3c0.5-3.3,1.4-6.5,2.3-9.8c0.5-2.8,1.4-5.6,2.3-7.9c0.5-1.4,0.9-2.8,1.4-4.2c0-0.9,0.5-2.8,0.9-3.3
			c0.9-0.5,2.3-0.5,3.3-0.9c0,0,0.5,0,0.5-0.5c0,0,0-0.5,0.5-0.5c0.5-2.8-0.5-4.7-0.9-7.4s1.4-4.7,1.4-7.4c0-0.5,0-0.5-0.5-0.9
			c-0.5-0.5-1.4,0-1.9,0.5c-2.8,2.8-2.3,7.4-6.1,9.3c-1.4,0.5-2.8,0.5-4.2,0.5c-2.8,0-5.6,0-8.4,0c-1.9,0-5.6-0.9-6.1,0.9
			c0,0.9-0.9,2.8-0.5,3.7s2.3,0.9,3.3,0.9c2.8,0.5,5.6,0.5,8.4,0c0.9,0,1.4-0.5,2.3,0c0.9,0,1.4,0.5,1.9,1.4c0.5,0.5,0,1.4,0,1.9
			c-0.9,2.8-2.8,5.6-4.7,8.4c-1.9,2.8-3.7,5.6-5.6,8.4c-2.8,4.2-6.5,7.4-9.8,10.7c-0.5,0.5-0.9,0.9-1.4,1.4c-0.5,0.5-0.5,1.4,0,1.9
			c0-0.5-0.5-0.9-0.9-1.4c-1.9,1.9-3.7,4.2-6.1,5.1c-1.9,0.9-3.7,0.5-4.2-1.9c-0.5-2.3,0.9-5.1,1.9-7c1.4-3.3,1.4-4.7,1.4-5.6
			c0-2.8-0.5-4.7-0.9-6.5c-0.5-1.9-1.4-2.8-2.8-3.7c0,0-0.5-0.5-0.9-0.5l0,0l0,0c-0.9-0.9-1.4-1.4-2.3-2.3c-0.5-0.5-1.4-0.9-1.9-0.9
			c-0.5,0-1.4,0-3.7,1.4c-1.4,0.9-2.3,1.9-2.8,2.3l0.5,2.3v0.5c-2.8,6.5-9.3,10.7-13.5,15.8c-0.9,0.9-1.9,2.3-3.3,3.3
			c-4.2,1.9-7-2.8-7-6.1c0-1.4,1.4-7.9-1.4-7c-1.9,0.5-2.8,1.9-4.2,2.8c-2.8,2.3-5.6,5.1-8.8,7.4c-1.4,1.4-5.6,5.6-8.4,4.2
			c-0.9-0.5-0.9-1.9-0.9-2.8c0.5-1.9,2.3-2.8,3.7-4.2c1.9-2.3,4.2-4.7,6.1-6.5c4.2-4.7,8.8-8.8,13-13c1.4-0.9,4.2-3.3,1.4-3.7
			c-2.3-0.5-5.1,1.9-7,3.3c-6.5,5.1-13,10.7-19.1,16.3c-1.4,1.4-4.2,2.3-4.2,5.1c0,1.4,1.4,2.8,1.4,4.2s-0.9,3.3-1.9,4.2
			c-0.9,1.4-1.4,3.3-0.5,4.7c0.5,0.9,1.9,1.4,3.3,1.4h0.5c1.4-0.5,2.3-0.9,3.7-1.9s16.8-13.5,16.3-14c1.4,1.4,1.9,2.3,2.3,4.2
			c0,1.4,0.5,2.8,0.9,4.2c0.9,1.9,2.8,2.8,5.1,2.8c5.1,0,9.3-5.6,13-9.3c2.3-2.3,4.7-5.1,7.4-7.4c2.3-2.3,4.2-5.1,7-6.5
			c1.9-0.9,4.7,1.4,5.6,2.8c0.9,1.9,0.9,3.7,0.9,6.1c-0.5,5.1-1.9,10.2-4.2,14.4c-0.5,0.9-0.9,1.4-0.9,2.3c0.5,2.3,3.3,0.9,4.7,0.5
			c7.4-4.7,14.4-9.8,20.5-15.8c1.4-1.4,9.3-12.1,10.2-7.4c0.5,0.9,0,1.9-0.5,2.8c-1.9,6.1-3.3,12.6-3.3,19.1c0,1.4,0,2.8,0.9,3.7
			c0.9,0.5,1.9,0.5,3.3,0.5c0.9-0.5,1.9-1.4,2.3-1.9c0-0.5,1.9-1.9,2.3-2.3c0.9-0.9,1.9-1.9,2.8-2.8c1.9-1.9,3.3-3.3,5.1-5.1
			c2.8-2.8,5.6-5.1,7.9-7.9c1.9-1.4,5.1-6.1,7.9-4.2c1.4,0.9,0.9,3.3,0.5,5.1c-1.4,3.7-2.3,7.4-3.7,11.2c-0.9,2.3-1.4,4.7-0.9,7
			c1.9,0.5,3.7-0.9,5.1-2.3c5.6-5.6,9.8-12.1,16.8-15.8c0.9-0.5,2.3-0.9,3.3-0.5c0.5,0,0.9,0.9,1.4,1.4c1.4,1.9,2.8,3.7,3.7,5.6
			c1.4,2.3,2.8,5.1,5.1,5.1c2.8,0,4.2-2.8,6.5-4.2l0,0c0,0,0,0,0.5,0c0.9-0.9,1.9-1.9,2.8-2.3c4.2-2.3,4.7,3.7,6.5,6.1
			c1.4,1.9,4.2,2.3,6.5,1.9c5.6-0.5,9.8-3.7,13.5-7.4c4.7-4.7,8.8-8.8,13-13.5c0.5-0.5,1.4-1.4,2.3-1.9c3.3-1.4,6.1,1.9,6.5,4.7
			c0.5,2.8,0,6.1-0.5,8.8c-0.9,3.7-2.3,7-3.7,10.7c-0.5,0.9-0.5,1.9,0,2.3c1.4,0.9,3.3,0,4.7-0.9c2.8-1.9,5.6-3.3,8.4-5.6
			c1.4-0.9,2.8-1.9,4.2-2.8c0.5-0.5,1.9-1.9,2.3-1.9C1141.3,406.5,1139.9,407.4,1139.4,406.5"/>
	</g>
</g>
</svg>
